/* XPM */
static char *bf5c2db62c6540ada94836c1cfd2fd31AvWQK9H80cS30O7i[] = {
/* columns rows colors chars-per-pixel */
"64 64 196 2 ",
"   c #04000D",
".  c #08020F",
"X  c #000007",
"o  c #060011",
"O  c #0A0213",
"+  c #0A0A15",
"@  c #0E051A",
"#  c #0E0A1B",
"$  c #070A13",
"%  c #10051B",
"&  c #120A1D",
"*  c #0F1F12",
"=  c #091514",
"-  c #16101E",
";  c #15191A",
":  c #0D2512",
">  c #122F16",
",  c #073C14",
"<  c #0F0620",
"1  c #150D22",
"2  c #180E24",
"3  c #1A0D2A",
"4  c #19072F",
"5  c #151123",
"6  c #1B1424",
"7  c #1D1826",
"8  c #171228",
"9  c #1D142C",
"0  c #1E1A2A",
"q  c #1C1532",
"w  c #1E1A33",
"e  c #1B1C3A",
"r  c #22142D",
"t  c #221C2C",
"y  c #211A27",
"u  c #380D3B",
"i  c #221633",
"p  c #231C35",
"a  c #241D3A",
"s  c #291D3C",
"d  c #2B1738",
"f  c #182525",
"g  c #183627",
"h  c #1D2234",
"j  c #1E2238",
"k  c #25212E",
"l  c #252233",
"z  c #2A2533",
"x  c #2C2935",
"c  c #25233B",
"v  c #29243B",
"b  c #252B3D",
"n  c #2A2C3D",
"m  c #232936",
"M  c #302C37",
"N  c #312D3A",
"B  c #26323D",
"V  c #2B333E",
"C  c #23393D",
"Z  c #35313D",
"A  c #38343F",
"S  c #43123C",
"D  c #0C4C0F",
"F  c #1F451D",
"G  c #0C561B",
"H  c #1A5418",
"J  c #0B6919",
"K  c #0F4727",
"L  c #28483E",
"P  c #29513F",
"I  c #291D41",
"U  c #3E1746",
"Y  c #292343",
"T  c #272D41",
"R  c #2D2B43",
"E  c #262040",
"W  c #312E44",
"Q  c #342E49",
"!  c #263344",
"~  c #2B3442",
"^  c #2B3C44",
"/  c #2D3B49",
"(  c #293647",
")  c #343144",
"_  c #3A3543",
"`  c #3B3945",
"'  c #34314A",
"]  c #3F3B4B",
"[  c #323C43",
"{  c #2C3650",
"}  c #4A1A47",
"|  c #47144A",
" . c #491448",
".. c #5C1B4B",
"X. c #571849",
"o. c #52224B",
"O. c #413C4C",
"+. c #433D52",
"@. c #4D274E",
"#. c #642554",
"$. c #6E3860",
"%. c #244342",
"&. c #2B4244",
"*. c #2B4A45",
"=. c #2D4349",
"-. c #2C4B4A",
";. c #244847",
":. c #324A4A",
">. c #2C5346",
",. c #2B5B46",
"<. c #2C534A",
"1. c #2D5B4C",
"2. c #275546",
"3. c #30534B",
"4. c #32584C",
"5. c #2F5C50",
"6. c #335752",
"7. c #256443",
"8. c #2D6246",
"9. c #2D634A",
"0. c #2E6E4F",
"q. c #326E49",
"w. c #30624A",
"e. c #2C7243",
"r. c #34754B",
"t. c #347747",
"y. c #306150",
"u. c #42414F",
"i. c #454352",
"p. c #4A475B",
"a. c #514F58",
"s. c #515055",
"d. c #5A5A67",
"f. c #73466F",
"g. c #656374",
"h. c #815279",
"j. c #08BF0F",
"k. c #0AB51D",
"l. c #10CA1E",
"z. c #0ECD19",
"x. c #27DF0C",
"c. c #39D716",
"v. c #1EE70D",
"b. c #2AE30B",
"n. c #2CF213",
"m. c #0AC720",
"M. c #50F027",
"N. c #2F8650",
"B. c #338C50",
"V. c #85FF37",
"C. c #8AFF5F",
"Z. c #905F81",
"A. c #8A8C95",
"S. c #929497",
"D. c #84888E",
"F. c #9596A4",
"G. c #AA9BA8",
"H. c #B3A1AA",
"J. c #B6BBBA",
"K. c #BABCBB",
"L. c #B6B5B6",
"P. c #A7A8A8",
"I. c #BDC0BD",
"U. c #C0C0BE",
"Y. c #BABEC2",
"T. c #BEC3C3",
"R. c #C3C5C3",
"E. c #CAC7C6",
"W. c #C6C9C5",
"Q. c #C8CAC7",
"!. c #C7CACB",
"~. c #CACCCA",
"^. c #D2CDCC",
"/. c #CED1CE",
"(. c #D1D2CE",
"). c #CFD3D1",
"_. c #D3D5D2",
"`. c #D6DAD4",
"'. c #DDDFD7",
"]. c #D7DAD8",
"[. c #DCDED9",
"{. c #DEE1D7",
"}. c #DFE0D8",
"|. c #E1E2DB",
" X c #E5E8DF",
".X c #DEE4E4",
"XX c #E4E7E0",
"oX c #E6E9E2",
"OX c #E6E9E2",
"+X c #E8EBE3",
"@X c #EAEEE6",
"#X c #E9ECE5",
"$X c #ECEFE8",
"%X c #EEF1EA",
"&X c #F2F5ED",
"*X c #F2F9F1",
/* pixels */
"}.}.'.}.}.}.|.|.}.}.|.|.|.|.|.|.|.|.|.}.|.|.|.|.|.|.|.|.|.|.|.|.|.|.|.|.|.|.|.|.}.}.|.|.|.|.|.|.|.|.|.|.|.|.|.}.|.|.}.|.}.}.|.{.",
"[.'.'.}.}.'.}.}.'.'.}.}.}.|.}.}.}.}.}.}.}.|.{.{.|.|.|.|.}.|.{.{.|.|.|.}.}.}.}.}.}.}.}.|.|.}.}.}.}.}.}.|.}.}.'.}.}.}.}.}.'.}.}.'.",
"}.'.'.'.}.'.'.'.'.'.'.'.'.'.}.}.}.}.}.}.}.[.}.[.}.|.[.[.'.'.{.|.}.}.}.}.}.}.{.{.{.}.}.}.}.}.'.'.}.}.}.'.}.}.'.'.}.'.}.}.'.'.'.'.",
"}.{.{.'.'.'.'.'.'.'.'.'.'.}.}.}.}.}.|.}.}.}.|.|.|.|.|.|.|.|.|.|.}.|.|.}.}.}.}.}.{.}.}.}.}.}.}.'.}.}.}.}.}.}.'.{.'.'.'.'.'.'.'.'.",
"}.'.'.'.'.}.'.'.}.}.'.'.|.|.}.}.}.|.|.|.{.|.|.|.|.|.|.|.|.|.|.|.|.|.|.}.{.{.{.}.}.}.|.|.|.}.{.}.}.}.}.}.}.}.}.}.}.'.'.'.'.'.}.'.",
"}.'.'.'.}.|.}.}.}.}.|. X X|.}.|.|.|.|.|.{.|.|.|.|.|.|.|.|.|.|.|.|. X|.|.|.|.{.}.}.|.|.|.|.|.{.{.}.}.|.}.}.}.}.}.}.{.'.'.'.}.}.'.",
"}.'.'.'.}.}.}.}.}.|. X[.`. X X|.|.|.|.|.|.|.|. X|.|.|.|.|.|.|.OXOX`.|.|.|.|.}.}.}.|.|.}.}.{.|.|.}.}.}.}.}.}.}.'.}.}.'.'.'.'.}.}.",
"}.'.'.'.'.}.'.}.}.|.OX+.p (. X XOX|.|.|.|.|. X X X|.|.|.|.OX+X}.`.Z J.+X}.|.|.}.}.}.|.}.}.}.|.|.|.'.}.}.}.}.}.'.'.'.'.}.}.}.{.{.",
"}.'.'.'.}.}.}.}.|.|.OXf.| y z (.}.OX X|.|.|. X X X X X XOX}.}.Z - U H. X|.|.|.|.|.'.|.|.|.|.|.|.}.}.|.|.}.|.|.|.}.'.'.{.}.}.{.'.",
"}.[.'.'.}.}.}.|.|.|.XXh. .%   - l ~.$X+X+XOX+X+XOXOX#X X Xs.+ @ u  .G.}.|.|.|.|.|.|.|.|.|.|.|.|.}.|.|.|.|.|.|.|.}.'.'.'.'.'.'.'.",
"}.'.'.}.}.}.}.}.|.|. XZ.X.} &     7 W.|.[.[.[.[.}.[.+XS.& + X u |  .L. X|.|.|.|.|.|.|.|.|.|.|.|.|.|.|.}.}.|.|.}.}.'.'.}.'.'.'.'.",
"}.'.'.}.}.}.}.}.|.|.|.H.#.| d @   o 6 0 R ' W ) ) v t &     O S X.o.E.OX|.|.|.|.|.|.|.}.|.|.|.|.|.|. X X X|.|.|.'.'.'.}.'.}.}.'.",
"}.'.'.}.}.}.}.}.{.|.|.`.$.X.#.& O q w l b ,.9.,.7.%.p c 1   U #...o.^.OX|.|.|.|.|.|.|.|.|.|.|.|. XOX[.].].XX|.{.'.'.'.'.}.}.'.'.",
"[.'.'.}.}.}.}.}.}.|. XOXf.X.2   9 c c ~ q.r.r.r.r.B.>.p l # O @ } @.(.+X|.|.|.|.|.|.|.|.|.|.|. X#X}.` 2 p R.+X|.}.'.'.'.}.'.'.'.",
"}.'.'.}.}.}.|.|.}.|. XOXG.r   O i V c b q.9.t.r.r.N.2.p c c #   @ K.#X X X|.|.|.|.|.|.|.|.|. X%X[.N   O o 6 R.#X|.'.'.}.}.}.}.}.",
"}.'.'.}.}.|.|.|.}.|. XOX Xk   p c c c a b e.t.r.0.( a ~ ~ ! c +   ).%X X X|.|.|.|.|.|.|.|. X#X_.z   O O O   6 R.OX}.'.'.}.}.}.'.",
"|.[.'.}.}.}.|.|.|.|. X#XJ.6 q c ,.^ 5.c a c b b b a &.L *.%.p p @ L.%XXX X|.|.|.|.|.|.|.|.#X].z   O     O O   z _. X'.'.}.}.}.'.",
"|.}.'.'.}.}.}.|.|.|.OX].x o p a c c y.b c c c 8.c p *.L i i i a @ & J.%XXX|.|.|.|.|.|.|.XX].N   O o 5 6 @ O 7 S.|.|.'.'.}.}.'.'.",
"}.'.}.}.}.[.|.|.|. X}.M a # $ = $ O i a a =.c c c a a 8 . $ = $ O w 6 R.#X X|.|.|.|.|. X}.N   O o v ~.}.t o U. X}.|.}.'.}.}.}.'.",
"}.'.'.}.}.|.|.|. X|.p.o a Y G j.z.G o + % p p p a 5 + O G l.z.K b c O 8 ~.+X X X X|.|.OX}.0   O 8 Q.%XXXO.p (.OX'.}.}.'.'.'.}.}.",
"}.'.'.}.}.|.|.|. X|.N   v W h c.V.H J k.= i p p 4 , m.G J C.M.g { c O 7 ].&X X X X|.|.XX}.k   O d.|.OX X[.[. X|.}.}.}.}.}.'.}.'.",
"}.'.'.}.}.|.|. X+X#X[.t o 9 ) f c.x.b.v.* i a a 4 D n.b.b.n.F b c @ O J.XX].OX+XXX X|.OX}.k   O d.[.OX XOXOX X|.|.}.}.}.}.}.}.[.",
"}.'.'.}.|.|. XXX|.|.%X_ o % q ( f : : * c c <.2.^ h * > : g ! c w + 5 ) R v W.XX X X|.OX}.t   O ) `.+X|.|.|.|.|.|.}.}.}.}.}.|.|.",
"}.'.'.}.|.|. XXXi.Q )./.l   % p a n b b ( 5 ! / b ! b v a v v E @ & L.!._.).i.) _.#X XOX|.N o O & W.$X X|.|.|.|.|.}.'.'.}.'.}.}.",
"}.'.}.|.|.|.|.XX_.~.u.z 6 O O @ a v ^ ^ ^ n + + ~ ^ =.~ c c p & O @ n ) /.*X]./.OXOX X XXX`.t   @ R Q.+X|.|.|.|.|.}.}.'.'.'.'.'.",
"}.'.}.|.|.|.|. X%X*X)./.).N   o @ 9 n ^ ^ / w m ^ ^ ^ ~ 5 O + O o @ Y.].] !.OX%X+XOXXX XXXXX_   v @ l (.+X|.|.|.|.}.}.'.'.}.}.'.",
"}.'.'.}.}.}.|.|.[..Xu.v F.].x & o O p R ^ ^ q l ^ ^ R 8 O O O O O O l `.XXp.' _.#XXXXXXXXXXX_.N o O O P.+X X|.|.|.}.}.}.}.}.|.|.",
"}.'.'.}.}.}.|. Xd.v J.(.[.#X[./.z o + @ a a 2 2 a c 8 O O O o O O a O t A.!.].A.].#XXXXX XXX+X_.x   i i R.#X|.|.|.}.'.'.'.}.}.}.",
"}.}.'.[.|.|.}. XXX].OX$XOXXX#X%X/.5   O @ a i i p @ O O O O O 9 3 p p 9 c Q E.XXOXOXOXXX X X XOX_.M o q l ~.#X|.|.}.'.'.}.}.}.'.",
"}.}.}.[.|.|.|. XOX+X X X XXX X#X}.6   O O @ O O O O O   3 a i p n c p b >.j v ' R.%XXXOX X X X|.+X].x O q v Q.OX|.|.}.}.}.}.}.'.",
"|.}.[.[.}.|.|.|.|.|.|.|.|. X X#X[.8   O o O O O O O o 2 i ! c ( 3.c b ;.&.1.;.w I R.%XXXXX X X X X+XT.5 o o W [.+X}.}.}.'.}.}.}.",
"|.|.[.[.[.|.|.|.|.|.|.|.|. XXX#X].8   O O O O O O o 2 a p a ^ ~ B b p n ^ -.1.>.e p W.%X XXX X X X X XN o O & Q.+X|.}.}.}.}.}.'.",
"[.[.}.}.}.}.|.|.|.|.|.|.|.|.OX[.) & O O p @ O O O 2 p ( R n ^ ~ B b p p a ^ <.<.;.%.l W.%XXX X X X X X`.t   O t /. X'.}.}.}.}.'.",
"|.'.'.'.{.|.|.|.|.|.|.|.|.|.+X[.Z L.0   & i a & p p a a ~ ^ ^ / ^ c p p i p V ~ ^ ~ 9 0 R.#XXX X|.|. XXXM   O @ (.+X'.}.}.}.}.}.",
"}.'.'.'.}.|.|.|.|.|.|.|.|. XXX X[.}.6 @ a @ & p a p i n &.^ ^ :.^ p a V a i p c c p p < 6 Q.#X X X X X XJ.6   & W.OX}.}.}.}.|.|.",
"}.'.'.'.|.}.}.|.|.|.|.|.|.|. XXX%X[.5   & i i p c 5 1 ~ &.^ ^ =.=.p w p p p p p p p p q + ~.%X X X|. XXX}.k   O t _. X'.}.}.}.}.",
"}.'.'.}.}.}.}.|.|.|.|.|.|.|. X X+X].k O O @ 9 v v 1 & ~ &.^ ^ &.=.p @ 9 i p p i p p i w & I.#X X X|.|.XX}.k   o # _. X'.}.}.}.'.",
"}.'.'.}.}.}.}.|.|.|.|.|.|. X XXXXX+X_.6   + i p a 1 & ~ &.^ ^ ^ ^ p + 9 i & % @ @ @ 1 q + 5 /.%X X|.|.XX}.k   o 5 _. X}.|.}.}.}.",
"|.}.'.}.}.}.|.|.|.|.|.|.|.|.|.|. X#X}.l o O @ p a 1 & / =.^ ^ &.&.p O O O O p C C B b & o O K.#X X|.|. X}.k   o - (. X'.}.}.|.|.",
"|.}.}.}.}.|.|.|.|.|.|.|.|.|.|.|. XOXOX/.y o O @ a 1 & a V &.^ =.=.c O o + V 3.,.,.8.>.j O   6 ~.#X|.|. X Xl   o & (. X'.}.}.|.|.",
"}.'.{.}.'.'.'.'.}.|.|.|.|.|.|. X XXXOX+XA.& o o 3 2 & a ~ -.^ c ^ l O O V :.<.8.8.8.9.,.m O O (.$X|.|.XX Xl   o & (. X'.}.}.|.}.",
"}.'.}.}.'.'.'.'.|.|.|.|.|.|.|. X XXXXX#X[.6   O O O 1 a ~ -.c a &.# O p a *.,.>.,.,.w.9.9.w & R.#X X XOX+Xz   o # /. X'.}.}.}.}.",
"}.'.}.}.'.|.|.|.|.|.|.|.|.|.|. X XXXXX#X[.5   O O o 1 a ~ -.c a =.# o p p c *.*.*.*.-.6.T a @ 6 /.#X|.XX[.l   O 0 (. X}.}.}.|.|.",
"}.'.'.}.|.|.|.|.|.|.|.|.|.|. X X XXXXX#X].l o O O o 1 s ~ -.c a c @ o i p p :.~ ^ *.c c c p 9 # ~.#XXXOXA o O & R. X}.}.}.}.|.|.",
"}.'.'.}.|.|.|.|.|.|.|.|.|.|. X XXXXXOXXX+X/.6   O   2 s V :.v a @ O O i p p c -.c *.c p p p w & _.$XXX[.t   O & _. X[.}.}.}.|.}.",
"}.}.}.}.|.|.|.|.|.|.|.|.|. X XXX+XOXOXXX#X}.6   O   1 s [ n p a @   . i c p a c a c p p a a 1 & _.%X#X_ o O   & ~.XX}.|.}.}.}.'.",
"|.}.}.}.|.|.|.|.|.|.|.|. X XXX+X}.+X+XOX#X].5   O   1 s [ n p a @   O p v l p p p p p p a a O # _.&X Xk   O O ] _. X}.|.|.}.}.'.",
"|.}.'.}.}.|.|.|.|.|.|.|. XXX#X].Z R.#XOX$X].5   O   1 s n v a a @ . O p v c p p p p p p a 8 O # `. XZ o +   & Q.OX|.}.|.|.}.}.}.",
"|.'.}.|.|.|.|.|.|.|.|.|. XOX XN   6 ~.#X#X_.5 o O   2 v v p a a @ O O p p p p p p p p p p r O % W.`   O O   t _.OX}.}.}.}.}.}.'.",
"}.'.|.|.}.}.|.|.|.|.|. XXX#X}.z   6 _.#X#X].5   O   2 v p p a c @ o O O p c p p p p 1 @ @ p @ O 5 O O O   y Q.#X X|.|.|.|.}.}.[.",
"}.}.}.}.}.}.|.|.|.|.|. XOXXX%X].` R.$XOX#X[.6   O   2 v p p c & O O O O O i s a p 8 @ O O 9 @ O o O O   6 W.&X}. X|.|.|.}.}.|.}.",
"}.[.}.}.}.|.|.|.|.|.|.XX}.` T.*X}.%X#XOX#X[.6   O   1 v p a c @   O O O O O 9 p 8 % O O O O O O O O   6 R.&X).x ~.+X|.|.}.[.|.|.",
"}.}.}.|.|.|.|.|.|.|.|.XX Xx k ].%X[.OXOX#X].6   O   1 v p a i O O O O O O O @ p & O O O O O O O O   6 R.%XXXg.0 _.%X|.}.}.}.|. X",
"}.}.}.|.|.|.|.|.|.|. X XOX[._.OX}.i.(.$X#X}.t   O   1 v c a & O o O O O O O p 1 O O O O O O O O   0 W.#XXX X[.[.OX].|.|.}.}.|.|.",
"}.}.'.'.{.|.|.|.|. X X XXX#X%X#X#X].#X$X#X].i.o O O 1 =.( 3 O   @ @ + + @ O O O O O O O O O O o t Q.%X+X#XOXOX$X[.` Q.OX'.{.}.}.",
"}.[.'.'.'.{.|.|.|.[.OX+X#X+XXXXXXX+XXXOX`.l @ o 8 *.e.%.a 1 O O c &.7.7.-.8 O O O O O O O O O @ K.+X}.}.}.#X#XOXOX_. X X}.}.}.[.",
"}.}.}.}.}.|.|. X[.d.~. X}.}.] 5 t y t t y O   # P *.4./ Y &   9 v / b ! c 9 1 i @ O O O O O O O 0 0 6 6 0 R. X[.].+X].}.|.}.|.|.",
"}.}.}.}.}.|.|. XXX_.g.z N n O &               o p c a a a @     o e @ O O o o 9 O                   &   & z x 5 N _.a.Q. X[.|.}.",
"}.'.'.}.}.}.|. X XD.~._./.~.g.W.Z 1 7 6 6 5 5 6 7 7 6 6 6 6 6 6 6 6 6 5 6 6 6 7 6 6 6 6 6 6 6 6 6 l T.` J.].W.) K.OX(.}.|.}.}.'.",
"}.'.'.'.'.'.}.|. X'.XX#X#X+X XOX[.].]._._.`.`.].].].].[.`.`.].[.[.].`.].[.[.[.[.[.[.[.`.[.[.[.[.[.[.OX].XX+XOX[. X|. X|.[.}.}.'.",
"}.}.}.}.'.}.}.}.}.|.}.}.|.|.|.|.XXOXOXXXXXXXOXOXOXOXOXOXOXOXOXOXOXXXOXOXOXOXOXOXOXOXOX X XXXXX X X X|. X|.[.}. X}.}.'.'.}.}.}.[.",
"|.}.}.}.}.}.}.}.{.}.}.}.|.|.|.|.|.|.|.|.|.|.|. X X X|. X X X X X|.|.|.|.|.|.|.|.|.|.|.}.}.}.}.}.}.|.|.[.|.}.|.}.}.}.'.}.}.}.|.}.",
"|.}.}.}.}.}.}.}.}.}.}.|.|.|.|.|.|.|.|.|.|.|.|.|.|.|.|. X|.|.|.|. X|.|.|.|.|.|.|.|.|.|.|.|.|.|.|.|.|.|.|.|.}.}.|.}.}.}.}.}.|.|.}.",
"}. X|.|.|.|.|.|.}.}.|.|.|.|. X X}.|.|.|. X X X X|.|. X X X X|.|. X X|.|.|.|.|.|.|.|.|.|.|.}. X X X|.|.|.|.|.|.|.|.|.|.|.|.|.|.|."
};
