/* XPM */
static char *d1f4bed5ba70463584f0cd75b031505bwWdph7hx9oWFBCCa[] = {
/* columns rows colors chars-per-pixel */
"32 32 196 2 ",
"   c #010205",
".  c #02030B",
"X  c #0A050A",
"o  c #000C08",
"O  c #0E0B0E",
"+  c #02120B",
"@  c #020313",
"#  c #060A15",
"$  c #090B14",
"%  c #0D0D1C",
"&  c #04061C",
"*  c #110F1D",
"=  c #051511",
"-  c #0B1315",
";  c #0C121B",
":  c #081D18",
">  c #121314",
",  c #13141C",
"<  c #161918",
"1  c #0F221C",
"2  c #13231B",
"3  c #0C0E24",
"4  c #0D0F28",
"5  c #110F24",
"6  c #141423",
"7  c #151A22",
"8  c #1B1C24",
"9  c #14162B",
"0  c #161B2D",
"q  c #1A1C2A",
"w  c #1B1D32",
"e  c #231E23",
"r  c #201E29",
"t  c #0D2225",
"y  c #122426",
"u  c #1C2225",
"i  c #1C2C24",
"p  c #1C212D",
"a  c #1A2E2B",
"s  c #162626",
"d  c #1E2237",
"f  c #1F3332",
"g  c #222223",
"h  c #2B2B2C",
"j  c #212A29",
"k  c #29322C",
"l  c #222333",
"z  c #252B35",
"x  c #2A2D35",
"c  c #232339",
"v  c #252A3C",
"b  c #292E3D",
"n  c #293333",
"m  c #2D363A",
"M  c #273B3A",
"N  c #253837",
"B  c #333335",
"V  c #383A37",
"C  c #34353A",
"Z  c #363839",
"A  c #32413C",
"S  c #2A2B43",
"D  c #2B2B47",
"F  c #2E3244",
"G  c #323340",
"H  c #32334B",
"J  c #353B4E",
"K  c #393C4D",
"L  c #393943",
"P  c #353650",
"I  c #354442",
"U  c #3B4D4A",
"Y  c #3D4051",
"T  c #484A47",
"R  c #424C4C",
"E  c #4A494C",
"W  c #44524B",
"Q  c #474A57",
"!  c #475452",
"~  c #4A5D5B",
"^  c #545A55",
"/  c #535D59",
"(  c #585A5A",
")  c #4D625D",
"_  c #55665D",
"`  c #4C4F62",
"'  c #625D61",
"]  c #4D6162",
"[  c #596562",
"{  c #66686B",
"}  c #64766E",
"|  c #69726D",
" . c #73796F",
".. c #676772",
"X. c #637671",
"o. c #6A7F7A",
"O. c #707770",
"+. c #787679",
"@. c #747B7A",
"#. c #7A787E",
"$. c #72847E",
"%. c #7D8077",
"&. c #7C7F92",
"*. c #797985",
"=. c #7C8987",
"-. c #7D9289",
";. c #7D9191",
":. c #8C8B8D",
">. c #828989",
",. c #86918B",
"<. c #8E9798",
"1. c #959495",
"2. c #909B96",
"3. c #959B9B",
"4. c #9B989D",
"5. c #878A9B",
"6. c #9EA49F",
"7. c #9AA4A5",
"8. c #A1A4A3",
"9. c #A2ABA5",
"0. c #AAADA5",
"q. c #A2A3AA",
"w. c #A2ACAC",
"e. c #AAA5AB",
"r. c #AAB3AD",
"t. c #B5B9AE",
"y. c #A8ABB2",
"u. c #ACB4B4",
"i. c #AEB7B7",
"p. c #B6BCB3",
"a. c #B3BEBB",
"s. c #BCBFBD",
"d. c #B7B9B3",
"f. c #BBC2B7",
"g. c #BBC4BD",
"h. c #C3C4BC",
"j. c #C2C8BC",
"k. c #C8C8BE",
"l. c #BEBFC1",
"z. c #C1BFCB",
"x. c #C4BBC0",
"c. c #BFC1C0",
"v. c #BCCBC5",
"b. c #C3C5C3",
"n. c #C4CBC4",
"m. c #CCCDC4",
"M. c #C6CFCC",
"N. c #CCCDCA",
"B. c #C7C4C6",
"V. c #D2CECB",
"C. c #D0CBC7",
"Z. c #CDD1C6",
"A. c #C6D2CC",
"S. c #CED3CB",
"D. c #CBD5C9",
"F. c #D1D1C7",
"G. c #D3D4CB",
"H. c #D9D4CC",
"J. c #D4D9CD",
"K. c #D9D9CE",
"L. c #C9CAD1",
"P. c #D0CDD1",
"I. c #CBD5D3",
"U. c #CEDAD5",
"Y. c #D4D5D2",
"T. c #DAD7D2",
"R. c #D5DAD2",
"E. c #DADBD4",
"W. c #D4D4D9",
"Q. c #DBD7DC",
"!. c #D5DCDB",
"~. c #DBDCDA",
"^. c #E2DEDE",
"/. c #E0DDD4",
"(. c #D5E1DD",
"). c #DCE2DB",
"_. c #DAE0D6",
"`. c #E0E0D6",
"'. c #E1E4DC",
"]. c #DDDDE5",
"[. c #E2DFE3",
"{. c #D6E6E1",
"}. c #DBE3E2",
"|. c #DEE9E3",
" X c #E3E3E3",
".X c #E4EAE5",
"XX c #E4E4E9",
"oX c #E6EEED",
"OX c #EDECE9",
"+X c #EAE6EA",
"@X c #F0EFED",
"#X c #E7F4EE",
"$X c #EEEEF3",
"%X c #E6EEF1",
"&X c #EFF1F0",
"*X c #FAFEFF",
/* pixels */
"G.G.G.G.F.F.F.F.K.K.G.C.^.Y.x. X~.Y.N.G.E.m.G.E.G.G.G.G.G.G.G.S.",
"G.G.G.G.F.F.G.F.m.T.E.T.B.+X[.P.l..XI.N.E.E.'.h.G.G.G.G.G.G.G.S.",
"G.G.G.G.G.G.F.F.m.J.d.OXG.N.W.P.}.M.A.'.N.k.E.E.G.G.G.G.G.G.G.G.",
"G.G.G.G.G.G.F.F.'.0.k 6.&X~.!.!.oX/ | I.G.T.S.J.G.G.G.G.G.G.G.G.",
"G.G.G.G.G.G.G.F.). .  B u.!.!.(.X.+ j g.).E.F.G.G.G.G.G.G.G.G.G.",
"G.G.G.G.G.G.G.F.).^ <   u R I U o = 2 g.).6.d.~.F.G.G.G.G.G.G.G.",
"H.G.G.G.G.G.G.F.S._ + 2 n M f a a : s v.(.9.9.n.G.G.G.G.G.G.G.G.",
"H.H.G.G.G.G.G.S..XU.i U U : M y ) : } #XU.|.D.).G.G.G.G.G.G.G.G.",
"H.V.K.m./.E.R.j.n.W k $.~ M M N X._ + $.I.R.I.).S.S.E.G.T.n.R.S.",
"H.G.H.m.G.F.R.f._ = A -.;.] t ;.o.-.1 ! ,.(.!.8.V T b.T.k.S.T.G.",
"G.G.G.G.F.Z.).p.r.2.n I ] y y N ) i W A.u.}.u.h > > :.T.'.).m.m.",
"m.G.F.E.F.Z.).p. .@.g.n - m y m + } v.{ >.s.g u   1. XY.b.f.T.~.",
"F.G.Z.K.Z.S._.n..X~.oXm - 7 z #   ,.#X}.*X+.8 O +.~.~.N.R.~.E.n.",
"F.F.m.J.F.R.R.'.n.Y.b., - . # # u / }.b.XX>.> B  XP.N.~.E.T.h.E.",
"S.Z.Z.J.J.J.t.E.E. X:.< r , $ q , Z 3.~. X:.X , e.Q.[.N.h.).S.Z.",
"S.Z.J.J.S.f.%.0.~.Y.B C L , l x R > $ N.$XB.B X e P.~.Y.T.G.S.S.",
"R.S.Z.J.J.j.t.h.~.G.g x L G K b z j . C W.[.4.X O '  X Xc.T.R.G.",
"S.S.Z.J.E.G.F.K.E.G.^ , Q b v v z ; $ 7 { XXQ...O e 1.^.T.E.G.N.",
"S.J.F.S.J.J.G.E.N.OX8.. z z 0 d F 7 # . x XX[.W.Z X E Y.Y.T.G.G.",
"S.R.F.Z.F.F.F.G.~.~.:.# @ w 3 v J 7 ; % q z.W.+X..O h N.N.G.T.G.",
"m.R.J.G.G.K.J.T.@X+.8 * % 3 4 J F & b Q 6 *.].].#.X g N.Y.T.R.N.",
"m.J.J.F.K.J.G.E.V.h   * 0 & S P c 9 ` 5.Q G z.$X+.  h N.~.G.G.G.",
"G.J.G.G.J.F.V.~.1., 8 % 5 & P H d v Q &...q y.].E   ( Y.T.S.G.E.",
"J.G.F.G.E.G.T.OX+.. 8 % 3 9 D H w w S H q l L.q.    1..XG.G.F.S.",
"G.G.J.G.S.G.E.).4.< 6 % 6 c D P 3 w S F Y q ..u   ^ c.G.G.R.m.F.",
"F.G.T.R.J.S.N.N.W.Q . * 6 c c S 9 0 9 0 z ; 7   Z 3.).E.N.R.J.J.",
"G.G.G.J.R.R.~.!.}.u.x # # c K l @ 6 p l p 7   z w.W.~.N.n.S.J.m.",
"K.G.G.S.G.R.Y.I.I.%X>.% # q K % $ 6 6 # . u n <.!.).n.R.).J.E.J.",
"J.J.G.G.S.n.i.7.=.<.[ - 8 8 q , 7 , $ - 7 ! @.w.3.r.r.N.R.h.m.F.",
"G.F.S.S.S.A.v.a.w.i.w.7.7.i.3.u.y.q.w.y.w.w.u.2.u.n.n.S.R.R.E.G.",
"J.G.S.S.U.R.(.(.I.(.{.}.I.}.I.!.!.!.].}.I.(.}.!.!.E.J.g.Z.E.m.m.",
"G.F.S.S.S.D.I.A.{.v.I.U.(.I.(.U.!.W.W.U.M.!.v.R.A.A.~.R.G.G.k.`."
};
