/* XPM */
static char *_845c3e8392e418e85f3b37d780603fddbVD3ukyNMK1uRyB[] = {
/* columns rows colors chars-per-pixel */
"26 32 137 2 ",
"   c None",
".  c #6E5D6C",
"X  c #745C6A",
"o  c #7A5D6B",
"O  c #73616E",
"+  c #7D616D",
"@  c #676675",
"#  c #6C6271",
"$  c #6B6877",
"%  c #6C6B79",
"&  c #766673",
"*  c #7C6673",
"=  c #706976",
"-  c #7C6A77",
";  c #716E7B",
":  c #7A6B78",
">  c #76717E",
",  c #825F6D",
"<  c #83626E",
"1  c #89636F",
"2  c #846672",
"3  c #8D6571",
"4  c #846A75",
"5  c #8C6A73",
"6  c #866F79",
"7  c #896F78",
"8  c #936673",
"9  c #986775",
"0  c #946B75",
"q  c #9C6B76",
"w  c #9A6E78",
"e  c #84727C",
"r  c #8A737B",
"t  c #947177",
"y  c #9C7177",
"u  c #957479",
"i  c #9B747B",
"p  c #93787E",
"a  c #9C797D",
"s  c #A26B77",
"d  c #A56D79",
"f  c #A96E7A",
"g  c #A4757A",
"h  c #A9767C",
"j  c #A27A7E",
"k  c #AC797D",
"l  c #6E7685",
"z  c #767783",
"x  c #7A7582",
"c  c #757A86",
"v  c #7C7883",
"b  c #757C88",
"n  c #7E7E89",
"m  c #817883",
"M  c #9A7A80",
"N  c #A47D80",
"B  c #A87E82",
"V  c #B17B81",
"C  c #C27F81",
"Z  c #7B828D",
"A  c #778590",
"S  c #798792",
"D  c #798894",
"F  c #A68182",
"G  c #AC8384",
"H  c #AD8A86",
"J  c #B38686",
"K  c #B18A87",
"L  c #BA8B87",
"P  c #B48A89",
"I  c #BC8C8A",
"U  c #B3928C",
"Y  c #BC918D",
"T  c #B59791",
"R  c #B59A93",
"E  c #C68685",
"W  c #CC8485",
"Q  c #CB8F8A",
"!  c #C2948E",
"~  c #CA968E",
"^  c #C4998F",
"/  c #D6918C",
"(  c #C49591",
")  c #CDA395",
"_  c #CAA299",
"`  c #D2A697",
"'  c #DBA297",
"]  c #D7AE9F",
"[  c #E0A699",
"{  c #EEA79A",
"}  c #E5AB9C",
"|  c #E7AE9D",
" . c #E5AA9B",
".. c #EFAC9D",
"X. c #EBAF9E",
"o. c #E0B29F",
"O. c #EDB19F",
"+. c #E3B5A1",
"@. c #E6B6A1",
"#. c #E4B6A2",
"$. c #EBBCA5",
"%. c #EBBEA7",
"&. c #ECBEA7",
"*. c #F0B3A0",
"=. c #F2B5A1",
"-. c #F3B7A3",
";. c #F4B7A3",
":. c #F3B6A2",
">. c #F4B8A3",
",. c #F4B8A4",
"<. c #F5B9A4",
"1. c #F5B9A5",
"2. c #F4B8A4",
"3. c #EFC2AB",
"4. c #F1C1A8",
"5. c #F7C5AB",
"6. c #F4C4AB",
"7. c #F9C1A9",
"8. c #FBC8AE",
"9. c #F8CAAF",
"0. c #FBCAAE",
"q. c #FBCBAF",
"w. c #FCC9AE",
"e. c #FAC8AD",
"r. c #EFC8B1",
"t. c #FBCDB1",
"y. c #FBCEB2",
"u. c #FBCFB3",
"i. c #FCCDB0",
"p. c #FCCCB1",
"a. c #FCCEB1",
"s. c #FBD0B3",
"d. c #FCD0B3",
"f. c #FBD0B4",
"g. c #FCD1B5",
"h. c #FCD3B6",
"j. c #FBD2B5",
/* pixels */
"        u F u H U T T U t F U U T R H u F u         ",
"      U ] #.^ $.p.u.f.8.Y #.8.u.f.g.$.^ #.] U       ",
"    _ r.p.| I } 1.1.1.=.L [ 1.1.>.1.} I | p.r._     ",
"  K 3.8.{ W q g k k k h 5 y h h k k g q W { 8.3.K   ",
"  ` w...C < , 9 q q q 3 X @ o 9 q q 9 , < C ..w.`   ",
"H 4.7./ 1 o 3 8 8 8 8 < . @ X < < < < o X < / 7.4.H ",
"K 5.*.k < s V J J J J w O % o y N N N j 0 , k *.5.K ",
"u ! L 3 o 3 i N N N j 0 O % < a N N N j 8 o 3 L ! u ",
"F +.' t $ : B P P P P J 7 ; j P P P P B : $ t ' +.F ",
"R g.;.j c m J ( ( ( ( ( p > H ( ( ( ( J m c j ;.g.R ",
"R s.=.g 2 u F H H H H F r v i J H H J G i 5 g =.s.R ",
"U u.=.g + < < < < < < < & v 0 B F F F F F i h =.u.U ",
"U 8.=.h 9 s s s s s s q 2 v G ( ( ( ( ( ( P k =.8.U ",
"a ` ~ 0 8 q q q q q q 9 * > y G G G G G G a w ~ ` a ",
"a ) ~ 0 a F F F F F F B 4 % 0 F G G G G F a 0 ~ ) a ",
"R d.;.k L ( ( ( ( ( ( J e = a I ( ( ( ( ( L k ;.d.R ",
"R f.=.h 0 a a a a a i 6 Z z n t N N N N N y h =.f.R ",
"T u.=.y X < < < < < < & D b Z i J P P P P j h =.u.T ",
"U p.1.y , d d d d f s - S c Z F ! ! ! ! ! P k 1.p.U ",
"F o.' 0 < w w w w w 0 - S c Z 4 u u u u u 5 w ' o.F ",
"u ^ I 0 B P P P P P G e S c Z + 1 1 1 1 < X 3 I ^ u ",
"U 5.O.k J ( ( ( ( ( I r S c Z 8 f f f f d < y O.5.U ",
"R g.;.h 0 a a a a a y - A c Z 2 0 0 0 0 0 2 g >.f.R ",
"R u.=.g 6 M P Y Y Y I i > % e G I Y Y P M r g =.u.R ",
"U u.1.a l x H ( ( ( ( I r ; B ( ( ( ( H v l a 1.u.U ",
"H 4.X.y # * a F F F F B 4 > i F F F F a * # y X.4.H ",
"t Y J 3 3 9 q q q q q 3 O ; i H H H H H F i 8 J Y t ",
"H &. .g 9 s s s s s s 8 . ; G ( ( ( ( ( ( P g  .&.H ",
"R f.>.g o < < < < < < + X % 5 a a a a a a u h =.f.R ",
"U 8.*.h j H H H H H H G 4 @ X < < < < < < o y *.8.U ",
"y Q E 9 j H H H H H H G 4 # o 8 9 9 9 9 9 o 3 E Q y ",
"X o o X X X X X X X X X X . X X X X X X X X X o o X "
};
