/* XPM */
static char *deab6048a75a4315f36ed5a8c37f283eetZzpfENHn1BMTrl[] = {
/* columns rows colors chars-per-pixel */
"32 30 61 1 ",
"  c #6E5967",
". c #7B5E6C",
"X c #7C616D",
"o c #805F6D",
"O c #83646F",
"+ c #836670",
"@ c #8D6471",
"# c #876972",
"$ c #8D6C75",
"% c #926672",
"& c #936E77",
"* c #9D6A76",
"= c #937077",
"- c #957279",
"; c #9A757B",
": c #9E7A7E",
"> c #A06B77",
", c #A56D79",
"< c #AB6F7A",
"1 c #AD707B",
"2 c #A17B7F",
"3 c #B1767E",
"4 c #9F7C80",
"5 c #A27D80",
"6 c #A87F82",
"7 c #B47D82",
"8 c #A38284",
"9 c #AC8384",
"0 c #A48788",
"q c #A68A8A",
"w c #AA8D8D",
"e c #B48486",
"r c #B88486",
"t c #B58788",
"y c #B88788",
"u c #B58A8A",
"i c #BB8C8B",
"p c #BF8D8C",
"a c #BC8F8C",
"s c #BC8F8D",
"d c #BA928F",
"f c #BC908D",
"g c #AA9090",
"h c #BD9390",
"j c #BF9793",
"k c #BF9893",
"l c #C08F8D",
"z c #C2928F",
"x c #C39390",
"c c #C39590",
"v c #C49692",
"b c #C09893",
"n c #C59993",
"m c #C09994",
"M c #C59994",
"N c #C69B95",
"B c #C89E97",
"V c #C49F99",
"C c #C5A09A",
"Z c #C5A19C",
"A c #C9A098",
/* pixels */
"yzvAAnMccczlszs-tvMABvncczzllz9X",
"ccccccccczzzxlt&ivccccccczzfsf2X",
"zxcccccvvcvvnvv2tvccccvvvvvvvvy+",
":552525::558852$;522222;:55885;O",
"mjsiyii;2shjmjsfbhsyyi9&tfjbkfss",
"cccvxxs-9vccccccccvxcz9-zccccccc",
"ccccvcv99vccccccccccccz:fccccccv",
";:55885-=::::::-;258084$:::::::=",
"ysjcVCccfffffff;tfcmZmccfffffftX",
"vccczzccccclzst;ivcczccccczlzt6X",
"szzzzzzcczzsxd9&tczzzzzcxzsscw:X",
";::::::;-:588q8&;::::::=:45800:#",
"zfsysst-6zchjmhyyyyysfs;iccmCVcz",
"cczzcMi;9vs3111111113sz:zccxzzcc",
"zzzzzzc66xr<1<@oo@<1<rs;szzzzzzz",
";::8845--:&%@.    .@%&:&::::::;$",
"szcMMccxzzr<,.    .,<rzzzfsyyf6.",
"vccccccccvy11,*O%*,11yvcczcccz9X",
"ysffffffffr<<<<@><<<<rfzfffffztO",
"48:::::--:;%%%%@@%%%%;:$:58882;$",
"Mnczsls-9czr77777777rzi;fcvMMccc",
"cccnvvz:9vccccccccvzxy:=zccccccc",
"ffssssf66ffffffffsfffsy-yfffffff",
";:58qw84;::::::$;580w08;:::::2;+",
"lxvnMMvncccccvv2tvvMVMnvcccccvyO",
"vvcccccccccylt6=ivcccccccvzss9:X",
"eissssssssiydd9&9sssssssssysdu2.",
":255555-&580qgq::55555:$:58qww8-",
"vvsyzxt-9vvnMMMvvzylzf5=zvvnMMvv",
"ccxccMj29vcccxcccxczMMt;zcccxccc"
};
