/* XPM */
static char *_c3c4e8dc31e48d5f514bf9c100f0fbeRfluidx5NyveCbHJ[] = {
/* columns rows colors chars-per-pixel */
"32 32 211 2 ",
"   c #3E343D",
".  c #551925",
"X  c #442B2A",
"o  c #403031",
"O  c #52393F",
"+  c #4C3034",
"@  c #69343B",
"#  c #3F4038",
"$  c #583B47",
"%  c #4C3442",
"&  c #753C43",
"*  c #494446",
"=  c #564546",
"-  c #5B535C",
";  c #5D5758",
":  c #654749",
">  c #694454",
",  c #734B59",
"<  c #63555B",
"1  c #625A5C",
"2  c #6B5856",
"3  c #785C5B",
"4  c #6A524E",
"5  c #6B615E",
"6  c #5F5860",
"7  c #6A5A66",
"8  c #7D5568",
"9  c #6C676B",
"0  c #736A66",
"q  c #756869",
"w  c #756C74",
"e  c #77747A",
"r  c #7D7478",
"t  c #6C7771",
"y  c #853447",
"u  c #894C53",
"i  c #964355",
"p  c #8C5A65",
"a  c #9A5568",
"s  c #AC556B",
"d  c #86666C",
"f  c #8B6164",
"g  c #926F6D",
"h  c #82736E",
"j  c #98746C",
"k  c #866876",
"l  c #936A7D",
"z  c #9C697A",
"x  c #867978",
"c  c #937379",
"v  c #AE6173",
"b  c #B8657A",
"n  c #A37679",
"m  c #C7657C",
"M  c #7D8279",
"N  c #9C837E",
"B  c #A4847B",
"V  c #B1827C",
"C  c #8C7B84",
"Z  c #977987",
"A  c #B86881",
"S  c #CE6880",
"D  c #D96C88",
"F  c #CC7085",
"G  c #DC708A",
"H  c #DA7793",
"J  c #E3708F",
"K  c #7F8C83",
"L  c #88848A",
"P  c #93868C",
"I  c #9B858C",
"U  c #92918C",
"Y  c #8D8991",
"T  c #8B9298",
"R  c #9A9299",
"E  c #959799",
"W  c #9A8691",
"Q  c #A98889",
"!  c #B58A89",
"~  c #A9908A",
"^  c #A48693",
"/  c #B58D94",
"(  c #A4929C",
")  c #AC939A",
"_  c #A49B94",
"`  c #B99599",
"'  c #B2918A",
"]  c #A3A49C",
"[  c #9F9FA1",
"{  c #AC99A3",
"}  c #A499A5",
"|  c #B994A4",
" . c #9CA4A7",
".. c #AEA1A5",
"X. c #A8A7A7",
"o. c #BAA4AA",
"O. c #BFACAF",
"+. c #B5A9A7",
"@. c #BDAEB6",
"#. c #B4B5BA",
"$. c #BAB6B7",
"%. c #ABB1A7",
"&. c #C28484",
"*. c #C89898",
"=. c #D29498",
"-. c #C48596",
";. c #E18094",
":. c #C4A19E",
">. c #C49DB0",
",. c #D69DAC",
"<. c #EB8CA5",
"1. c #FF9AB5",
"2. c #C8A5AA",
"3. c #D4AEB6",
"4. c #C3B4B6",
"5. c #C6B8B9",
"6. c #D8B4B6",
"7. c #CBA5B0",
"8. c #F8A9BB",
"9. c #F2BFBE",
"0. c #E7BABF",
"q. c #BBCABF",
"w. c #B8C3BB",
"e. c #C5C8BF",
"r. c #BABCC1",
"t. c #D1AFC0",
"y. c #C2BEC1",
"u. c #C7B9C4",
"i. c #D6BDC7",
"p. c #DBBED0",
"a. c #FFAEC9",
"s. c #E1B3C0",
"d. c #FFBCC9",
"f. c #BDC6C4",
"g. c #B6CAC3",
"h. c #BCCCC3",
"j. c #BBCCCA",
"k. c #B8C5C5",
"l. c #BCD3CC",
"z. c #BBDACA",
"x. c #BED5D1",
"c. c #BDDCD3",
"v. c #C4C3C3",
"b. c #CDC3C4",
"n. c #C4CDCC",
"m. c #CBCDCC",
"M. c #C4C8C8",
"N. c #D2C7CE",
"B. c #D2CBCD",
"V. c #D8C3C9",
"C. c #C4D3CD",
"Z. c #CAD4CD",
"A. c #C3DACD",
"S. c #CAD8CE",
"D. c #D2D1CE",
"F. c #DAD4CA",
"G. c #CCCDD2",
"H. c #C7CFD1",
"J. c #DAC5D3",
"K. c #D4CDD2",
"L. c #DBCBD4",
"P. c #DACDDA",
"I. c #D4C2D0",
"U. c #C5D4D2",
"Y. c #CBD4D3",
"T. c #C5DAD4",
"R. c #CBDAD4",
"E. c #CCD5D9",
"W. c #CDDAD9",
"Q. c #C7DBD9",
"!. c #D3D3D4",
"~. c #DAD3D4",
"^. c #D1D9D5",
"/. c #DADCD5",
"(. c #D4D6DA",
"). c #D9D5DA",
"_. c #D3DBDB",
"`. c #DCDBDC",
"'. c #E3CBD5",
"]. c #FFC6DA",
"[. c #F8CAD8",
"{. c #E2D4D9",
"}. c #E3D5D8",
"|. c #FFDBDA",
" X c #EAC7C3",
".X c #CEE3DE",
"XX c #C7E4DD",
"oX c #D3E2DD",
"OX c #DAE2DF",
"+X c #D5E7DA",
"@X c #D4DEE0",
"#X c #DCDEE1",
"$X c #E6DCE2",
"%X c #F6D8E6",
"&X c #D3E6E4",
"*X c #DCE4E3",
"=X c #DDEBE6",
"-X c #DAECEB",
";X c #E0E6E4",
":X c #E4EBEE",
">X c #E8E7E7",
",X c #F5E7E9",
"<X c #E8F1EC",
"1X c #FAE8F4",
"2X c #EDF5F7",
"3X c #EAF6F7",
"4X c #F3F3F5",
"5X c #FEFAF6",
"6X c #FDF4FE",
"7X c #FCFBFD",
"8X c #F5FAF8",
/* pixels */
"c.XXl.T.C.C.h.+XR.q./.Z.m.Z.R.C.U.G.K.`.Y.Q.x._.J.'.L.G.U.T.T.C.",
"Q.g.oXR.g.+XR.h.h.S.S.S.^.^.n.R.R.*X!.$.U.-Xx.Y.K.L.P.K.U.T.U.U.",
").m.Y.U.W.T.h.R.R.S.q.+XR.n.M.#XM.*XY.^.oXg.c.x.U.n.U.Y.Q.U.Y.!.",
"P.$XM.Y._.C.n.;X^._.T.W.j.W.#Xy.^.f.m.OXoXT..XT.T.U.C.U.Y.U.K.~.",
"J.P.(.@Xk.;X~.@.@.y.Y.Q.&Xn.!.`.`.n.>Xw.$.B.$.!.oXR.U.U.R.!.K.).",
"P.u.@XE.M.`.^ z | Z 9 t oX=XM.~.m./.] _ Q d , c b.Y.R.R.!.!.!.K.",
"(.U.U.l.#X{ z b A -.` 5 K R.~.}./.5.2 2.=.v s a / 4.!.~.K.K.!.Y.",
"C..Xl.T.D.d 8.H H y p 5 # M x h x o 2 ! y S D <.p ) B.~.N.K.R.Y.",
"+Xg.c.A.X.d ].1.D F & : +.F.~ ~ ~ N : @ s G J a.,.d }.~.).v.R.T.",
"M.T.z.+X%.4 d.8.;.b u  X6.B *.*.:.` / @ i m <.].6.2 /.f.!.U..Xl.",
"e.OXA.A.%.0 s.%X8.u *.B j ! =.&.` ! f ! . =.].[.I M =XA.Y.U.Q.l.",
"D./.h.C.<XU : 3.6.f g ' j V &.=.n ` c 3 : Q 3.o.* w.S.T.U.C.C.R.",
"D.e.*XR.k.OX..= = 2 x X : ! |.9.Q X $ : q o ; 1 E 4Xn.Z.T.T.C.R.",
"!._.f.Y.@X_.E.v.+.0 4.0 4 ,X:.:.5Xx O 4.< * v.~.,X{.~.!._.Z.n.Y.",
"j.@XW.W.E.f.#X#XM.; +.b.,X5X_ 0 $.5X5.O.7 r $XV.6./ 7.V.!.m.D./.",
"&Xk.W.U.E.Y.Y.U.#XL 9 ~.5X,XF.4X<X4X1Xx < ~.}.i.7.s.` i.~.!.D.D.",
"Y.Y.Y.Y.Y.R.oX*X^.^.X.* q b.b.5.B.U * 9 ~.,XV.4.o.%XO.~.~.~.Z.^.",
"^.R.Z.C.C.R.<X8XC._.!.L w P P C r q * 1 ~.{.i.o...b.~.~.B.D.D.Z.",
"Z.Y.R.T.Z.T.oX=XOX`.[ R ..{.,X1X,X( I : k $X,XL.o.) ,X!.n.Z.^.m.",
"Z.Y.R.R.T.C.C.n.f.#Xe x ..C 1X6X( { l + > J.u.}.o.^ L.D.T.C.Y.S.",
"^.Y.C.C.Y.R.R.Y.:XL X.- R ( J.6XZ >.8 l > l %X'.( o.N.K.!.Y.T.R.",
"Y.U.C.Y.W.W.R.U.*XE R L - C 1X6X| , 8 t.k > [.^ W L.~.!.m.!.R.T.",
"n.U.Y.W.W.W.Y.U.(.T - P 7 I.1X%X%Xl k Z k $ k Z @.$X(.!.B.!.R.x.",
"Y.R.Y.U.n.Y.@X:X:X#.9 6 7 @.u.p.p.Z 7 7 $ % Z J.1X).m.!.!.E.U.T.",
"Y.Y.n.n.W.@XH.#.E.e Y X.- * w < 9 - { }   - r.#.$.N.).E.n.U.R.R.",
"Y.Y.Y.U._.*X_.n.r.r.Y w Y Y L } T T e e E  .E X.M.P.`.R.C.U.Y.!.",
"C.Y.Y.C.U._._.R._.7X2X*X7X7X>X4X3X8X2X:X:XW.U.3XG.(._.E.U.Y.Y.m.",
"C.Y.Y.C.n.U.Y.U.n.f.(.`.n.H._.W.-Xj.j.Q.U.W._.k.U.Y.U.n.Z.Y.Y.Z.",
"Z.Y.Y.Z.Z.Y.Y.C.*XR.j.n.R.Y.U._.n.E.XXT.U.Y.(.^.C.l.C.n.m.!.Y.C.",
"Z.C.Z.Z.R.R.Y.C.h.R.Y.U.oXR.k.n.U._.T.j.C.Y.n.M.T.A.C.C.Z.!.Z.C.",
"C.C.C.Z.Z.Z.C.C.C.T.oXR.l.C.Q.R.U.M.Y.!.Z.R.oXR.Y.Y.Z.C.S.C.Z.C.",
"S.S.S.S.Z.C.C.Y.T.T.C.C.oXT.l.T._.!.m.K._.Y.h.C.Z.m.Z.C.A.A.Z.Z."
};
