/* XPM */
static char *b30a3b62306c4096f45d8f78f9a1f510vxQGAWuDD2Ha1oPv[] = {
/* columns rows colors chars-per-pixel */
"64 64 222 2 ",
"   c #030727",
".  c #0E1D3B",
"X  c #071A36",
"o  c #141E35",
"O  c #131D39",
"+  c #191A39",
"@  c #030F30",
"#  c #261E3E",
"$  c #0E213B",
"%  c #13223D",
"&  c #1C233E",
"*  c #182237",
"=  c #23233E",
"-  c #141F40",
";  c #2B1C45",
":  c #152441",
">  c #1B2643",
",  c #1A2944",
"<  c #1F2A52",
"1  c #232642",
"2  c #252A44",
"3  c #242D4A",
"4  c #2B2D4B",
"5  c #292745",
"6  c #3E2646",
"7  c #392C4C",
"8  c #342949",
"9  c #2B334C",
"0  c #2A384E",
"q  c #25314E",
"w  c #32354D",
"e  c #2C3552",
"r  c #293654",
"t  c #333A55",
"y  c #333D59",
"u  c #383656",
"i  c #322F51",
"p  c #363D63",
"a  c #46294B",
"s  c #472F54",
"d  c #453857",
"f  c #5A3158",
"g  c #61375A",
"h  c #563F65",
"j  c #693B68",
"k  c #773B74",
"l  c #3B4157",
"z  c #36415A",
"x  c #3A445A",
"c  c #3C485C",
"v  c #3C4265",
"b  c #364260",
"n  c #44445C",
"m  c #43495F",
"M  c #4B475D",
"N  c #4D4B63",
"B  c #4B4B6C",
"V  c #444A65",
"C  c #524E64",
"Z  c #5B4A65",
"A  c #4C5369",
"S  c #545166",
"D  c #5A5466",
"F  c #55546A",
"G  c #5B566B",
"H  c #5F5A6D",
"J  c #545D6D",
"K  c #4A5774",
"L  c #5E5B71",
"P  c #585678",
"I  c #664763",
"U  c #60576C",
"Y  c #615C6E",
"T  c #774373",
"R  c #625D71",
"E  c #695F71",
"W  c #744F78",
"Q  c #566478",
"!  c #4D6177",
"~  c #656174",
"^  c #696274",
"/  c #6B6479",
"(  c #67697E",
")  c #76687C",
"_  c #923F73",
"`  c #8C4574",
"'  c #8F4D75",
"]  c #AA4B7E",
"[  c #BB4B7C",
"{  c #80697C",
"}  c #C04679",
"|  c #565D82",
" . c #5C6684",
".. c #5D6A85",
"X. c #5B6A8C",
"o. c #5E7293",
"O. c #646B85",
"+. c #7D6887",
"@. c #6A778C",
"#. c #686996",
"$. c #6D729A",
"%. c #697695",
"&. c #73799A",
"*. c #7C7786",
"=. c #767CA2",
"-. c #8B4D83",
";. c #A6588A",
":. c #B85789",
">. c #A75A92",
",. c #B04F88",
"<. c #896F82",
"1. c #AC7094",
"2. c #B0638A",
"3. c #8369A1",
"4. c #C55587",
"5. c #D25B88",
"6. c #C3648B",
"7. c #D56488",
"8. c #C86796",
"9. c #D97B99",
"0. c #D66D92",
"q. c #F67994",
"w. c #EB6E8F",
"e. c #79818D",
"r. c #7D8696",
"t. c #7C83A4",
"y. c #7B86A6",
"u. c #858B9A",
"i. c #868C96",
"p. c #8D939E",
"a. c #94979E",
"s. c #858AAA",
"d. c #8B91AE",
"f. c #8B96A5",
"g. c #949BA7",
"h. c #8B8CB6",
"j. c #8E96B7",
"k. c #9398B8",
"l. c #A89BA4",
"z. c #A690B6",
"x. c #9BA2AA",
"c. c #9EA4A8",
"v. c #9DA1BE",
"b. c #A3A7AD",
"n. c #A7A8B5",
"m. c #B2B4B7",
"M. c #F18399",
"N. c #F08E98",
"B. c #DA8EAC",
"V. c #E58AA6",
"C. c #EA93AA",
"Z. c #EB90A7",
"A. c #F39EA2",
"S. c #FF82A5",
"D. c #DAABBE",
"F. c #F9BAAC",
"G. c #EAAEB9",
"H. c #ECB4BC",
"J. c #F9AEB3",
"K. c #BBC0BD",
"L. c #FAC3B4",
"P. c #FBD0BC",
"I. c #9C9DC0",
"U. c #949AC0",
"Y. c #9DA3C3",
"T. c #9EA8C9",
"R. c #A4ABC5",
"E. c #A9AFC7",
"W. c #AAAECA",
"Q. c #A4A7C7",
"!. c #ACB3CA",
"~. c #ACB3C9",
"^. c #B3BBCE",
"/. c #B4B9C8",
"(. c #ACB5D1",
"). c #B3BCD2",
"_. c #B8BCD3",
"`. c #A3A9D0",
"'. c #DCB4C7",
"]. c #F4B3C3",
"[. c #E6BDCA",
"{. c #BCC3D3",
"}. c #BAC5D9",
"|. c #B9C8E1",
" X c #C5C8CA",
".X c #C5CCD6",
"XX c #C4CDDB",
"oX c #C6C6D7",
"OX c #CBD2DC",
"+X c #CBD3DA",
"@X c #D1D6DD",
"#X c #D4DADD",
"$X c #D7DAD6",
"%X c #E9CBCB",
"&X c #FCC3C6",
"*X c #F5CDD4",
"=X c #EEDEDB",
"-X c #F2D6D4",
";X c #DEE0DA",
":X c #E4E6DD",
">X c #CBD6E1",
",X c #D5DBE2",
"<X c #DADEE2",
"1X c #D4DBE8",
"2X c #D4CDE4",
"3X c #DDE3E3",
"4X c #E2E6E3",
"5X c #E5EAE4",
"6X c #EAEBE3",
"7X c #EAEEE9",
"8X c #E3E8EA",
"9X c #F9ECE6",
"0X c #EDF1EB",
"qX c #EBF2E8",
"wX c #F3F5EB",
"eX c #F6F9ED",
"rX c #F9FBEE",
"tX c #F9F4E6",
"yX c #FDFFF2",
"uX c #FFFFFC",
"iX c #F3F6F2",
"pX c #EBF1F6",
/* pixels */
"Y Y Y H G H Y H Y H H U U Y Y Y Y Y Y Y Y Y Y H H Y Y Y Y Y Y Y Y Y Y G U Y Y Y Y Y Y Y U Y Y Y Y Y Y U G G U Y U Y H H H Y H H ",
"Y Y Y Y H Y Y Y Y Y Y Y Y Y Y Y Y Y Y Y Y Y Y Y Y Y Y Y Y Y Y Y Y Y Y Y Y Y Y Y Y Y Y Y Y Y Y Y Y Y Y Y Y Y Y Y Y Y Y Y Y Y Y Y ",
"Y Y Y Y Y Y Y Y Y Y Y Y Y Y Y Y Y Y Y Y Y Y Y Y Y Y Y Y Y Y Y Y Y Y H H Y Y Y Y Y Y Y Y Y Y Y Y Y Y Y Y Y Y Y Y Y Y Y Y Y Y Y Y ",
"Y Y H H H Y Y Y Y Y Y Y Y Y Y Y Y Y Y Y Y Y Y Y Y Y Y Y Y Y Y Y Y Y H Y Y Y Y Y Y Y Y Y Y Y Y Y Y Y Y Y H H Y Y Y Y Y Y Y Y Y Y ",
"Y Y H H Y Y Y Y Y Y Y Y Y Y Y Y Y Y Y Y Y Y Y Y Y Y Y Y Y Y Y Y H Y Y Y Y Y Y Y Y Y Y Y Y Y Y Y Y Y Y Y Y Y Y Y Y Y Y Y Y Y Y Y ",
"Y Y Y H H Y Y Y Y Y Y Y Y Y Y Y Y Y Y Y Y Y Y Y Y Y Y Y Y Y Y Y Y Y Y Y Y H H Y Y Y Y Y Y Y Y Y Y Y Y Y Y Y Y Y Y Y Y Y Y Y R R ",
"Y Y Y Y Y Y Y Y Y Y Y Y Y Y Y Y Y Y Y Y Y Y Y Y Y Y Y Y Y Y Y Y Y Y Y Y Y Y Y Y Y Y Y Y Y Y Y Y Y Y Y Y Y Y Y Y Y Y Y Y Y Y R R ",
"Y Y Y Y Y Y Y Y Y Y Y Y Y Y Y Y Y Y Y Y Y Y Y Y Y Y Y Y Y Y Y Y H Y Y Y Y Y Y Y Y Y Y Y Y Y Y Y Y Y Y Y Y Y Y Y Y Y Y Y Y Y R R ",
"Y Y Y Y Y Y Y Y Y Y Y Y Y Y Y Y Y Y Y Y Y Y Y Y Y Y Y Y Y Y Y Y Y Y Y Y Y Y Y Y Y Y Y Y Y Y Y Y Y Y Y Y Y Y Y Y Y Y Y Y Y Y Y Y ",
"Y Y Y Y Y Y Y Y Y Y Y Y Y Y Y Y Y Y Y Y Y Y Y H Y Y Y Y Y Y Y Y Y Y Y Y Y Y Y Y Y Y Y Y Y Y Y Y Y Y Y Y Y Y Y Y Y Y Y Y Y Y R Y ",
"Y Y Y Y Y Y Y Y Y Y Y Y Y Y Y Y Y E ~ Y Y Y Y Y Y Y Y Y Y Y Y Y Y H H Y Y Y Y Y Y Y Y Y Y Y Y Y Y Y Y Y Y Y Y Y Y Y Y Y Y Y R Y ",
"Y Y Y Y Y Y Y Y Y Y Y Y Y Y Y Y S D S G Y Y Y H Y Y Y Y Y Y Y Y Y Y E Y Y Y Y Y Y Y H Y Y Y Y Y Y Y Y Y Y Y Y Y Y Y Y Y Y Y R Y ",
"Y Y Y Y Y Y Y Y Y Y Y Y Y Y E F e 9 9 l D Y Y Y Y Y Y Y Y Y Y S S S C G Y Y Y Y Y H H H Y Y Y Y Y Y Y Y Y Y Y Y Y Y Y Y Y Y Y Y ",
"Y Y Y Y H Y Y Y Y Y Y Y Y ^ D x 4XwX#Xs.2 G Y Y Y Y Y U Y U C 9 9 9 9 M Y Y Y Y Y H H Y Y Y Y Y Y Y Y Y Y U Y Y Y Y Y Y Y Y Y Y ",
"Y Y Y Y Y Y Y Y Y Y Y Y ~ M t 4XyXyXrX4Xn.3 C Y Y H H Y R n A wX7X5XyXO.w ~ Y Y U U Y Y Y Y Y Y Y H H Y Y Y Y Y Y Y Y Y Y Y R Y ",
"Y Y Y Y Y Y Y Y Y Y H E x a >.j.wXyXrXeX@XY.9 M Y H H ~ t O.yXrXyXXX}.|. .w ~ Y U U Y Y Y Y Y Y Y Y Y Y Y Y Y Y Y Y Y Y Y Y Y Y ",
"Y Y Y Y H Y Y Y Y Y Y E x a :.z 6XyXrXrX5X).K G ^ L / q @.rXyX6Xv k -.-.z.%.> D ~ ~ Y Y Y Y Y Y Y Y Y Y Y Y Y Y Y Y Y Y Y Y Y Y ",
"Y Y Y Y Y Y Y Y Y Y H E x s 4.h wXyXyX5XXX}.h.4 O % : i.wXuX$XV _ [ } 7.9.+.@.c.O > H E Y Y Y Y Y Y Y Y Y Y Y Y Y Y Y Y Y Y Y Y ",
"Y Y Y Y Y Y Y Y Y Y Y E x s 5.T {.yX3XOX).K p g.m.K.z g.uX0XR.; 4.4.N.F.M.-.f.rXb.u.2 S ^ Y Y Y Y Y Y Y Y Y Y Y Y Y Y Y Y Y Y H ",
"Y Y Y Y Y Y Y Y Y Y Y E x s w.` P  X,Xt.K p.p.wXuXuXJ i.uX XB k :.0.N.F.A.-.@.yXuXwXc.t C ) G Y Y Y Y Y Y Y Y Y Y Y Y Y Y Y Y H ",
"Y Y Y Y Y Y Y Y Y Y H E x s q.,.5 Q.t.r.i.uXuXrXeXeXc a.uXf.+ ,.5.q.N.L.J.` Q yXwXrXuXx.V N / Y Y Y Y Y Y Y Y Y Y Y Y Y Y Y Y H ",
"Y Y Y Y H H Y Y H Y H E l 7 2.:.j #. .:XuXwXeXrXrX7Xy u.pX%.# ] 5.N.F.F.G.) ! yXrXrXwXuXb.V N ^ Y Y Y Y Y Y Y Y Y Y Y Y Y Y Y Y ",
"Y Y Y H H Y H H H H H E n : p :.k p :XyXwXrXrXrXeXuX*.&.(. .# [ 6.F.P.q.D.o.J uXeXrXrXwXuXx.t H Y Y Y H Y Y Y Y Y Y Y Y Y Y Y Y ",
"Y Y Y Y Y Y Y Y Y Y Y H E M i 3.t 5XyXeXrXrXrXrXrXeXyXoX| % 7 7.L.q.w.w.D.X.Q uXeXrXwXrX@XXXf.& R Y Y Y Y Y Y Y Y Y Y Y Y Y Y Y ",
"Y Y Y Y Y Y Y Y H H Y Y Y Y N y :XrXrXrXrXrXrXrXrXrXrXrX3Xy.d q.q.w.w.'.X.v {.yXrXeX{.7XyX,X(.d.n G Y Y Y Y Y Y Y Y Y Y Y Y Y H ",
"Y Y Y Y Y Y Y H H H H Y Y E N % wXyXrXrXrXrXeXuXuXuXyXrXyX3Xd.d oXoX2XO.K j.oXrXrXrXwX}.3XrX8Xk.1 G Y Y Y Y Y Y Y Y Y Y Y Y Y H ",
"Y Y Y Y Y H Y H H Y Y Y E F x m.wXyXrXrXrXrXuX~ l V $XuXeXyX,Xr.K K ! 3 ( `._.rXrXrXrX4XqXyXiXj.O ^ Y Y Y Y Y Y Y Y Y Y Y Y Y Y ",
"Y Y Y H H H Y Y H D G E G 4 x uXrXrXrXrXrXwXr.r.a.3 m  XyXrXwX{.Q O v O.t.^.4XrXrXrXyXyXyXqX,X~.O.n H Y Y Y Y Y Y Y Y Y Y Y Y Y ",
"Y Y Y H H H H H Y *.~ R N @ c rXrXrXrXrXyXqX- x.$XA   f.uXeXwXOX|.r =._._.4XyXeXrXrX5XwXeX+X^.}.R.o G Y Y Y H Y Y Y Y Y Y Y Y Y ",
"Y Y Y Y H H Y G ^ :Xp.~ m : A rXyXrXrXrXyXqXq @ @ O X g.uXeXyXyX).r t.5XyXyXrXrXrXeX{.qX#X{.}._.k.& G Y Y Y Y Y Y Y Y Y Y Y Y Y ",
"Y Y Y H H H H Y R R #Xm.t Q yXrXrXrXrXrXyXqXy . % % % x.uXeXiXiX).q K.uXeXrXeXeXrXrXrXyX.X#X4X~.k.& G Y Y Y Y Y Y Y Y Y Y Y Y Y ",
"Y Y Y Y H Y U G G H R  Xg.K uXrXrXrXrXrXrXyX6Xt . . b.yXyX5X).).(.q K.uXeXyX,X`.rXrXyX{.3X<X~.!.j.& G Y Y Y Y Y Y Y Y Y Y Y Y Y ",
"Y Y Y Y H Y Y G G L C / V ..uXrXyXrXrXrXqXOX>X.X;X:XwXyX3X@X7XW.T.p  XyXyX<X_.wXyXyXoX/.{.).R.~.d.& G Y Y Y Y Y Y Y Y Y Y Y Y Y ",
"Y Y Y Y Y Y Y U H N /.7Xr.M &XtXJ.9XyXrXwX5X0XrX8X3XwXyX<X^.XXR.z %.3XyX7X_.^.OXXXXX8X{.R.@X@XQ.s.& G R H H Y Y Y Y Y Y Y Y Y H ",
"Y Y Y Y Y Y Y G G  Xb.m.( a S.V.[ :XyXeXrXyX.X<X0X{.}.@X}.~.!.T.O y.0XqXOX^.~.{.#X_.OX4X}._.{.Y.j.& G Y H H Y Y Y Y Y Y Y Y Y Y ",
"Y Y Y Y Y Y Y ^ n.n.Y N N d g 8.z.qXyXyXwX>X,X).oX8X{.T.).}.Y.y O..XyX4X+X{.Q._.@X^.~.OX{.Y.Y.d.b % H ^ Y Y Y Y Y Y Y Y Y Y Y Y ",
"Y Y Y Y Y Y Y / b.L G R ^ D t P |.1XOX+X.X^.,X#XU.).iXOX&.K B | ,XyXwX#XOXE.W.OXE.!.!.~.E.R.W.s.+ T ` d H ^ Y Y Y Y Y Y Y Y R Y ",
"Y Y Y H Y Y Y Y D H Y Y H E H t K K U.(.!.(.).pX8X%.Q +Xu.@ @.1XyXqX#X.X!.h.~.,XE.~.E.~.E.R.I.X.> 8.'.l.n D ^ Y Y Y Y Y Y Y R Y ",
"Y Y H H Y Y Y Y Y Y Y Y R Y R E 9 w P  . . . ... Xg.< @.g.&.XX5X4XXXoX{.Y.h.j.Y.!.E.E.R.v.W.=.e j 6.%XuXb.N H / Y Y Y Y Y Y R Y ",
"Y Y Y Y Y Y Y Y Y Y Y Y Y R R R ~ D * X X X X r $.Q.h.X.d.XX{._.^.^._.Q.I.I.k.U.!.W.R.I.I.s.V + T ,.7.%XuXb.F L ~ Y Y Y Y Y R Y ",
"Y Y Y Y Y Y Y Y Y Y Y Y Y R R H 2 o > i u d u #.=.$.#.R.OX{.}.{.^.!.W.k.s.t.t.=.=.y.s.k.I.B X : % s ;.9.-XuXu.n ~ Y Y Y Y Y R R ",
"Y Y Y Y Y Y Y Y Y H Y Y H E H * * $ i 8.0.8.>.4 . 5 2 c.yX#X{._.E.k.k.B 2 y 0 9 2 3 > $.V . % % : % > ;.A.-XtX<.9 ^ Y Y Y Y R R ",
"Y Y Y Y Y Y Y Y Y Y Y R F 9 o o % % 4 8.8.;.4 % % 2.*XeXtX Xh.h.r , > ' [.wXwX%X:.:.;.u $ % % % % > : > 6.M.9Xe.9 / Y Y Y Y R Y ",
"Y Y Y Y Y Y Y Y Y Y Y Y R F t % % % > 4 4 2 % % ] =X&XM.9.' , 3 % $ ` *X].H.=X8.:.;.i * % % % > 4 G G % 2.9X*XI 0 ^ Y Y Y Y R Y ",
"Y Y Y Y Y Y Y Y H H H H R R R G e , > , : % % : ` 9.9.,.f = % % : : T 0.9.' 9 = 1 1 % : > 9 N Y H ~ R t $XyXJ.g 0 ^ Y R Y Y R R ",
"R Y Y Y H Y Y Y Y Y Y R Y R R E H S F n 9 3 > : 2 5 5 1 & % % % % : 1 5 5 = . : : , , N H H E E ~ R / ;XyXC.w.g 0 ^ Y R R Y R R ",
"Y Y Y Y H H Y Y Y Y R R R Y Y Y Y R R H H R G F S A N N S S S C S S S A A S D D G G H E ~ R R R R ) 1.tXyXV.f 9 Y R Y Y R Y R Y ",
"Y Y Y H H Y Y Y H H R Y R R Y Y Y Y Y R R R E R E E E R E E E E E E E E E E E E E R R R H H R ~ *.H.9XeXB.5.a t ^ Y Y Y Y Y R R ",
"Y Y Y Y Y Y Y Y Y H H Y Y R R H H Y Y R R R H H H H Y Y Y R R H H H Y Y Y Y H H H H R L ^ / +.l.iX9XV.9.g # n R Y Y Y Y Y Y R R ",
"Y Y Y Y Y Y R R H H Y Y Y Y R Y Y Y Y Y R H H H L L R ~ ~ ~ ~ ~ ~ / / ^ ~ ~ E ~ ~ ~ / L m.eX0X=XV.V.0.a O l H R Y Y Y Y Y Y Y R ",
"Y Y Y Y Y Y Y Y H H Y Y Y Y R Y Y H H H H H H H H R v x.wX6X6X6X6X5X5X5X:X:X:X5X5X5X5XqXG.V.C.V.:.8 8 . n E R Y Y Y Y Y Y Y Y R ",
"Y Y Y Y Y Y Y Y H H Y Y R R Y R Y H Y Y H H H H N  X:XD.<.c V V V 1.B.B.V.Z.C.Z.Z.C.C.C.:.f 8 6 8 . n N H E E Y Y Y Y Y Y Y Y R ",
"Y Y Y Y Y R Y R Y Y Y R R Y Y R R R H H Y Y L F  X].{ D Z u u u d I s 6 6 6 6 a 6 6 a a 8 e x n n C ^ E Y Y Y Y Y Y Y Y Y Y R R ",
"Y Y H H Y Y Y Y Y Y Y R R R R Y R Y H H Y R R L a.I 7 V ~ ~ ~ ~ ~ H m x x x z z z x z l l D ^ ^ ^ ^ Y Y Y Y Y Y Y Y Y Y Y Y R R ",
"Y Y H H Y Y Y Y H Y Y Y Y Y Y Y Y Y H H Y Y R E G x H ^ H H H H H H E ^ ~ ^ ^ ^ ^ ^ E E ^ Y Y Y Y Y Y Y R Y Y H Y Y Y Y Y Y Y Y ",
"Y Y H H H Y Y Y Y Y Y Y Y Y R Y Y Y H H Y Y Y Y E ^ R Y Y Y Y H H H H Y Y H H H Y Y Y Y Y Y Y Y Y Y Y Y R Y H Y Y Y Y Y Y Y Y R ",
"Y Y Y Y H H Y Y H H Y Y Y R R Y Y Y Y Y Y Y Y Y Y H Y Y Y Y Y Y H H Y Y Y Y Y Y Y Y Y Y Y Y Y Y Y Y Y Y Y Y Y Y Y Y Y Y Y Y R R ",
"Y Y Y Y H H H Y Y H Y Y Y R Y Y Y Y Y Y Y Y Y Y Y Y Y Y R R R Y H H Y Y Y Y Y Y Y Y Y Y Y Y Y Y Y Y R Y Y Y Y Y Y Y Y Y Y Y R R ",
"Y Y Y Y H Y Y Y Y H Y Y Y R R Y Y Y Y Y Y Y Y Y R R Y Y Y R R Y H Y Y Y Y Y R Y Y Y Y Y Y Y Y Y R Y R Y Y Y Y Y Y Y Y Y Y R R Y ",
"Y Y Y H H Y Y Y Y Y Y Y Y R Y R Y Y Y Y Y Y Y Y R R R R Y Y Y Y Y R R R Y Y R Y Y Y Y Y Y Y Y Y Y Y Y Y Y Y Y Y Y Y Y R R R R Y ",
"Y Y Y Y Y Y Y Y Y Y Y Y Y Y R R Y Y Y Y Y Y Y Y R R Y Y Y Y Y Y Y R R R Y Y R R Y Y Y Y Y Y Y Y Y Y Y Y Y Y Y Y Y Y Y Y R R R Y ",
"Y Y Y Y Y Y Y Y Y Y Y Y Y Y Y Y Y Y Y Y Y Y Y Y Y Y Y Y Y Y Y Y Y Y Y Y Y R R Y Y Y Y Y Y Y Y Y Y Y Y Y Y Y Y Y Y Y Y Y Y Y R Y ",
"Y Y Y Y Y Y R R R R R R Y R Y Y Y Y Y Y Y R R Y Y Y Y Y Y R Y Y Y R R Y Y Y R Y Y Y Y Y Y Y Y Y R Y Y R R R Y Y Y Y Y Y R Y R R ",
"Y Y Y Y H Y Y R R R Y Y Y Y H H Y Y Y H H Y Y Y Y H H H H H Y Y Y Y Y Y R Y Y Y Y Y Y Y Y Y R Y Y Y Y R Y Y R R R Y Y Y R Y Y Y "
};
