/* XPM */
static char *_583923fa92a48b1e3d29157daacc6c1BtLwH6WSfKa47XM4[] = {
/* columns rows colors chars-per-pixel */
"32 32 181 2 ",
"   c #100F0B",
".  c #11120C",
"X  c #0E1913",
"o  c #131611",
"O  c #151A15",
"+  c #1A1B15",
"@  c #1E1F1A",
"#  c #121E1A",
"$  c #16201F",
"%  c #1E211A",
"&  c #222317",
"*  c #22241D",
"=  c #25281F",
"-  c #2A2A1D",
";  c #172222",
":  c #1B2523",
">  c #1E2924",
",  c #252621",
"<  c #282622",
"1  c #252923",
"2  c #2B2B26",
"3  c #212B2A",
"4  c #2D2D29",
"5  c #312F21",
"6  c #312D2A",
"7  c #2D3027",
"8  c #27322A",
"9  c #2D322B",
"0  c #303121",
"q  c #32332D",
"w  c #383429",
"e  c #32382E",
"r  c #3B3B2D",
"t  c #242E30",
"y  c #2F3931",
"u  c #2F393A",
"i  c #343631",
"p  c #383632",
"a  c #353B33",
"s  c #3A3B35",
"d  c #3C3E38",
"f  c #413F34",
"g  c #423D3A",
"h  c #3A4136",
"j  c #364139",
"k  c #3D433C",
"l  c #43433C",
"z  c #43493D",
"x  c #4B4A3E",
"c  c #424333",
"v  c #3E4941",
"b  c #3B4546",
"n  c #454541",
"m  c #494643",
"M  c #444B43",
"N  c #4B4B45",
"B  c #454F4E",
"V  c #4D4D49",
"C  c #514F43",
"Z  c #514E4A",
"A  c #445147",
"S  c #4B5147",
"D  c #47504B",
"F  c #4D534A",
"G  c #535346",
"H  c #54534D",
"J  c #53594F",
"K  c #5C584D",
"L  c #5B574C",
"P  c #4B5453",
"I  c #4E585A",
"U  c #545451",
"Y  c #595451",
"T  c #555B53",
"R  c #5A5A54",
"E  c #5B5E59",
"W  c #615E5B",
"Q  c #5C6256",
"!  c #5C625B",
"~  c #63645C",
"^  c #69625A",
"/  c #666B5D",
"(  c #596261",
")  c #5C676B",
"_  c #646561",
"`  c #6A6563",
"'  c #656A61",
"]  c #6A6C65",
"[  c #6D6D68",
"{  c #636C69",
"}  c #716D64",
"|  c #706C69",
" . c #6D736B",
".. c #707267",
"X. c #73736C",
"o. c #76796D",
"O. c #7B786F",
"+. c #6D7673",
"@. c #747570",
"#. c #757B73",
"$. c #7B7B74",
"%. c #7D7E79",
"&. c #7B7673",
"*. c #807C79",
"=. c #7C827B",
"-. c #83837D",
";. c #88887E",
":. c #7B8481",
">. c #828580",
",. c #868982",
"<. c #8B8B85",
"1. c #938F8D",
"2. c #8D948C",
"3. c #93958D",
"4. c #949590",
"5. c #9C9794",
"6. c #959A92",
"7. c #9A9C95",
"8. c #9F9B98",
"9. c #9EA29B",
"0. c #A2A39D",
"q. c #ABACA5",
"w. c #AEADA9",
"e. c #ABB0A9",
"r. c #B3B3AE",
"t. c #B6B6B3",
"y. c #B7B9B2",
"u. c #B9BCB6",
"i. c #BDBEB9",
"p. c #C2C2BD",
"a. c #C4C4C0",
"s. c #C8C7C3",
"d. c #CAC9C5",
"f. c #D2CECC",
"g. c #CFD2C9",
"h. c #D0D1CC",
"j. c #D3D9CF",
"k. c #D5D5D2",
"l. c #D7D9D4",
"z. c #DBDBD5",
"x. c #DDDBD9",
"c. c #E2E2DD",
"v. c #E3E3E1",
"b. c #EAE7E3",
"n. c #E7E8E3",
"m. c #EBEAE5",
"M. c #EFEFEE",
"N. c #F2ECEB",
"B. c #F3F3ED",
"V. c #FBF6EE",
"C. c #EEEEF0",
"Z. c #F5F5F2",
"A. c #F9F5F3",
"S. c #F7F8F2",
"D. c #F9FAF3",
"F. c #FAFAF5",
"G. c #FDFBF7",
"H. c #FEFEF6",
"J. c #FCFCF5",
"K. c #FBFBF9",
"L. c #FBFBFB",
"P. c #F9F8F9",
"I. c #FCFBF9",
"U. c #FDFCF8",
"Y. c #FFFFFA",
"T. c #FFFFFB",
"R. c #FEFFFB",
"E. c #FEFEF9",
"W. c #F9F8FD",
"Q. c #FBFBFD",
"!. c #FCFBFF",
"~. c #FDFBFC",
"^. c #FFFFFD",
"/. c #FFFEFC",
"(. c #FEFDFF",
"). c #FFFEFF",
"_. c #FEFFFF",
"`. c white",
"'. c #FEFEFE",
"]. c #FDFDFE",
"[. c #FEFEFB",
/* pixels */
"`.Z.`.T.T.D.H.c.Z %.Z.T.I.`.K.`.H.H.B.q.v.K.W.`.`.`.`.`.`.`.`.`.",
"`.`.`.K.T.T.T.w.N V ,.T.`.T.`.F.T.z.] H Z.`.`.W.`.`.`.`.`.`.`.`.",
"`.`.`.T.T.T.T.<.l R Z f.G.T.I.T.n.R 4 ] Z.M.`.`.`.`.`.`.`.`.`.`.",
"`.`.K.`.K.B.T.4.~ Y 4 W p.z.k.c.<.V _ ] Z.`.C.`.`.`.`.`.`.`.`.`.",
"`.`.W.`.K.S.T.7.~ R R ,.7.7.i.y.4.[ $.X.Z.`.K.U.`.`.`.`.`.`.`.`.",
"!.`.`.K.`.T.T.%.V ,.$.6.[ ~ 0.,.w.,.$.q.F.Z.`.`.`.`.`.`.`.`.`.`.",
"!.`.`.Z.`.T.c.] / $.N d a l -.R F q.,.9.T.U.T.`.`.`.`.T.T.T.T.T.",
"`.W.`.K.`.B.a. .] a =.X.H d <.] 2 ! ] 0.Z.T.F.T.T.T.T.T.T.T.T.T.",
"`.!.`.K.`.n.<.<.' F 6.j.e.T =.T =.6.>.9.q.S.T.F.T.T.F.T.H.T.G.T.",
"`.`.`.K.F.h.,.<.Q #.,.#.#.E @.V 7.u.q.3.,.g.H.D.B.S.m.B.m.B.b.T.",
"`.!.`.`.S.p.3.<.J ' 2.4.#.D =.=.#.,. .! $.r.y.o...$.$.;.3.0.q.V.",
"`.`.I.T.F.u.6.#.Y T  . .! P :.+.=. .H M =.q.7.l x G G ~ ..O.<.H.",
"T.T.T.T.F.r.,.F T ' ! T { P P ( U T ! F ' ] o.z l x x C K L } V.",
"T.T.T.H.T.q.#.z h k D P B u u b 3 h T /  .Q / x r r r f x G } H.",
"H.D.T.H.H.7.' J T M k 3 ; I ) t > 1 9 z T Q / G c 0 5 5 w l ^ J.",
"H.D.T.H.J.-.F E k a 9 : $ 3 ; ; > y k S M F / ~ l - - & - f ^ V.",
"T.J.T.Z.z.W 4 + . . o O X X # > j M S M k M Q o.R l q * & 4 R H.",
"T.T.F.T.s.R V n q 4 1 1 1 8 j A j h a a h k M F  .~ S q * * V H.",
"T.T.T.T.a.l N p q a k M M v v v F M l h a e q 7 Q / H q * . p S.",
"J.T.T.T.B.[ R n d d d a a a j j i a a 9 < * = 2 a N l q 4 + p H.",
"T.T.T.F.T.w.R N n n n M M v v k i q 9 1 % + @ % + < , , 4 @ s F.",
"T.T.A.T.F.z.Z 6 * 1 9 i a a 9 1 k a 1 * * * % + % % + * 2 % d Z.",
"S.T.T.T.T.T.8.Z m l p 9 9 h v v 9 1 % % * < < * 4 = < q q < N T.",
"T.T.T.B.T.T.m.$.V N d p a d a i k k k q < % % * + . * q 2 + l B.",
"T.F.J.F.T.A.T.<.g m n k 9 k a d M n p , % O o + , , 2 2 q + g B.",
"Z.T.F.T.T.f.*.6 l g s a q d a k i 1 o o , < @ + @ 6 q 2 p   s T.",
"T.T.k.t.8.W p H g m V l d 1 2 p , 4 4 2 < * * p q U m 6 m 6 Z I.",
"T.%.d d m m l N s Z Y g l < 4 q a q < < q s d m Z N 6 + < + V b.",
"T._ H F m d H H W &.~ d n q q , @ 2 2 2 s n V R X.a.x.1.` 1.f.`.",
"U.] l k | ` ` Y g X.W g n s n d @ i q * q _ q.x.`.m.Z.`.`.`.`.A.",
"Z.4.E l H N Z l <.r.-.~ E H N l p _ >.4.t.v.K.`.`.`.`.`.Z.N.I.`.",
"T.l.p.7.W @.p.N.T.G.5.1.r.d.p.r.r.M.`.`.Z.T.`.I.G.`.T.`.`.`.`.I."
};
