/* XPM */
static char *cc1f49f0330b4d94b93f4cc65e6d67c7QwmorwCvlqRVFRfs[] = {
/* columns rows colors chars-per-pixel */
"31 32 168 2 ",
"   c #3C3751",
".  c #3E3851",
"X  c #423751",
"o  c #4C3752",
"O  c #433951",
"+  c #4C3952",
"@  c #533753",
"#  c #543B52",
"$  c #5C3A52",
"%  c #603B4F",
"&  c #633A51",
"*  c #6C3C52",
"=  c #723C52",
"-  c #7A3D51",
";  c #554154",
":  c #5B4255",
">  c #584F5E",
",  c #624355",
"<  c #6C4454",
"1  c #6D4B57",
"2  c #6A4A58",
"3  c #744453",
"4  c #7B4353",
"5  c #744A56",
"6  c #7D4B56",
"7  c #744D59",
"8  c #7C4C58",
"9  c #756265",
"0  c #7D7173",
"q  c #8B3F4F",
"w  c #823E51",
"e  c #8B3E51",
"r  c #933E51",
"t  c #8C404F",
"y  c #834654",
"u  c #8D4351",
"i  c #834C56",
"p  c #8B4C56",
"a  c #824E58",
"s  c #954150",
"d  c #9E4150",
"f  c #954C56",
"g  c #9A4B54",
"h  c #845157",
"j  c #8C5157",
"k  c #845058",
"l  c #8C5459",
"z  c #935257",
"x  c #93555A",
"c  c #9A5558",
"v  c #965B5D",
"b  c #9B5C5E",
"n  c #A9434E",
"m  c #A64450",
"M  c #AB4450",
"N  c #A54952",
"B  c #A94D52",
"V  c #B14F53",
"C  c #A45659",
"Z  c #AB565A",
"A  c #A35C5B",
"S  c #A95C5B",
"D  c #B75153",
"F  c #B65957",
"G  c #BB5B57",
"H  c #B25D59",
"J  c #A3615D",
"K  c #AB645E",
"L  c #B1665F",
"P  c #BC655D",
"I  c #BE685F",
"U  c #975E60",
"Y  c #995E60",
"T  c #A05F60",
"R  c #8D6062",
"E  c #9C6161",
"W  c #95746D",
"Q  c #A16261",
"!  c #AC6260",
"~  c #A16D67",
"^  c #AC6A65",
"/  c #A26F69",
"(  c #B56662",
")  c #B46A62",
"_  c #BE6E64",
"`  c #AC776C",
"'  c #BE7067",
"]  c #B3746A",
"[  c #B8776C",
"{  c #BB7B6D",
"}  c #C2635B",
"|  c #C56A5F",
" . c #C46D60",
".. c #C67162",
"X. c #CA7263",
"o. c #CA7569",
"O. c #D47769",
"+. c #D67A69",
"@. c #DA7A6A",
"#. c #978076",
"$. c #99897F",
"%. c #B08574",
"&. c #B38C79",
"*. c #D7816F",
"=. c #DC826F",
"-. c #C38171",
";. c #CF8B75",
":. c #D78370",
">. c #DA8471",
",. c #D08C76",
"<. c #DE8E76",
"1. c #E18671",
"2. c #E68972",
"3. c #EA8E75",
"4. c #EE967A",
"5. c #E39E7F",
"6. c #EC9D7D",
"7. c #F09C7C",
"8. c #F0A17F",
"9. c #978A82",
"0. c #C19B80",
"q. c #C5A387",
"w. c #E4A382",
"e. c #E9A683",
"r. c #EDAB86",
"t. c #F1A682",
"y. c #F3AB85",
"u. c #F1AF88",
"i. c #E7B98F",
"p. c #F3B48A",
"a. c #F5BA8E",
"s. c #FBBB8E",
"d. c #E9BD91",
"f. c #F9BF91",
"g. c #FBC392",
"h. c #F8C091",
"j. c #FAC493",
"k. c #F8C394",
"l. c #FAC594",
"z. c #FCC694",
"x. c #FAC493",
"c. c #FBCA97",
"v. c #FBCB97",
"b. c #FCC996",
"n. c #FBCA97",
"m. c #FBCB98",
"M. c #FCCB98",
"N. c #FCCC98",
"B. c #FECD98",
"V. c #FDCF9C",
"C. c #FDCC9D",
"Z. c #FCCC99",
"A. c #FCD19E",
"S. c #FDD19D",
"D. c #FDD29E",
"F. c #FCD3A1",
"G. c #FCD5A2",
"H. c #FCD7A6",
"J. c #FCD4A1",
"K. c #FDD9A7",
"L. c #FED9A7",
"P. c #FED9A7",
"I. c #FDDAA9",
"U. c #FDDCAC",
"Y. c #FDDEAF",
"T. c #FDDAAA",
"R. c #FDDFB1",
"E. c #FDDFB1",
/* pixels */
"k.I.L.i.~ p.A.U.J.L.H.A.z.[ { V.H.A.v.-.] g.J.E.L.V.,.%.A.U.F.",
"c.c.v.d./ p.N.c.m.c.m.N.g.[ { j.M.N.z.-.] g.M.c.M.v.;.&.N.c.c.",
"y.l.l.w.E 3.y.y.y.y.y.y.7.) _ 7.y.y.7.' ) 4.y.y.y.7.o.` f.l.f.",
"O.>.>.o.6 T Q Q Q E E Q Q a a Q Q E Q k 6 Q E Q Q Q l b >.>.>.",
"b E b 8 O O O X $ & & @ @ & & @ @ & & @ @ & & $ X O X # x Y E ",
"p.u.2.v o = = $ = t e * = q u = = u t = * e t = $ = & ; O.6.a.",
"V.m.t.Y   $ S K K i j L S 3 K K L j i L K 3 A K K p X ; *.g.N.",
"I.c.y.Y   $ A K K 6 j K b 3 A K K i i K S 3 b K J y X ; >.j.c.",
"U.c.y.U $ u C 6 j K K b 3 A K i i K K j y K K j 4 g - : :.j.c.",
"A.m.t.U $ s S y z K K S 3 K L p p L L j i K K z 6 g w : *.g.N.",
"p.u.2.v . $ c J b < + = * + $ = = $ O O O + p J A y X ; O.6.a.",
"E E b <   $ S ) L 3 . + , : , + @ : : # . + c ) L p X + l Y E ",
"w.5.=.x @ w z 8 y u & 5 @.=.>.2 Q =.+.! + - u i 3 u = # X.<.e.",
"N.c.8.Y $ d H i f N = 7 2.p.l.9 0.z.7.' @ r N c i B e : *.a.N.",
"A.M.y.Y . $ x v x * . 7 4.N.A.9 q.D.s._ O + i v x 4 X ; >.l.c.",
"J.m.y.Y   & L _ P 4   # R #.9.> 0 $.W 5 . + C _ _ f X ; >.j.c.",
"F.m.y.Y o - j 5 4 - $ # R #.9.> 0 $.W 5 + = p i 3 y & : :.j.c.",
"E.c.y.U & m P j g n - 7 4.N.A.9 q.D.s._ @ d F C p V e : :.l.c.",
"J.c.8.Y X & i l i * X 7 2.p.l.9 0.z.6.' O # y l h 3 + ; =.a.N.",
"w.5.=.x X * K ..| 4   5 @.=.>.2 ^ 1.@.( O + Z .. .f X # X.<.e.",
"E E b < + * i 5 ; + . + : : : O # : : # O & y i 5 4 $ + l Y E ",
"p.u.2.v & M } j   . .   X $ $ @ o $ $ $ @ d G A p D r : O.6.a.",
"A.m.t.Y X & 3 6 2 , # 2 5 3 3 8 8 y * 6 7 3 3 k 6 3 # ; *.g.N.",
"I.c.y.Y   $ y ....I y  .X.c c .... .6 I X.C z ....g X ; >.j.c.",
"A.m.y.Y X & 3 6 k l 5 8 i 6 6 6 6 l 5 6 6 i 6 h 8 3 # ; >.j.c.",
"J.c.t.U & M } z A ..X.z C X...c c ..X.C z ....A p D r : *.g.N.",
"p.u.2.v o * y 3 4 8 1 $ : 7 i 3 3 8 5 , $ 5 a 4 = 4 $ ; O.6.a.",
"b E b 8 O X $ & & o   .   X $ & & @       . $ % & @ . # x Y E ",
"O.>.>.o.6 T E E E Q b 3 b Q E E b 3 b Q Q Q Q E E Q l b >.>.>.",
"y.l.l.w.E 3.y.y.y.t.=.b 2.t.y.t.2.b 1.t.y.y.y.y.y.7.o.` f.l.f.",
"c.c.v.d./ p.N.m.c.c.w.E y.m.M.c.r.Y e.c.M.c.m.c.M.v.;.&.N.c.c.",
"k.I.L.i.~ p.A.F.I.N.e.E u.N.F.I.r.Y e.N.A.I.F.L.I.v.,.%.A.U.F."
};
