/* XPM */
static char *f4a3b892626044bab63507f3ba85d196[] = {
/* columns rows colors chars-per-pixel */
"32 32 239 2 ",
"   c #397616",
".  c #316D11",
"X  c #2E5831",
"o  c #346527",
"O  c #386636",
"+  c #3A7D30",
"@  c #417F1C",
"#  c #446D30",
"$  c #323859",
"%  c #3E2D6E",
"&  c #3E3A6C",
"*  c #383369",
"=  c #2E2B74",
"-  c #2D2673",
";  c #3A2C7A",
":  c #352877",
">  c #353374",
",  c #3C3373",
"<  c #3D3A75",
"1  c #3C347A",
"2  c #3E3B7B",
"3  c #35357B",
"4  c #401F7A",
"5  c #40366B",
"6  c #442E7E",
"7  c #433C74",
"8  c #493D74",
"9  c #42347C",
"0  c #443C7B",
"q  c #4B3C7B",
"w  c #463676",
"e  c #553D7B",
"r  c #364346",
"t  c #375948",
"y  c #38475A",
"u  c #3D5B55",
"i  c #2E5359",
"p  c #3C6354",
"a  c #3A4565",
"s  c #3A5464",
"d  c #3A4377",
"f  c #44584B",
"g  c #49545B",
"h  c #466C4A",
"j  c #487646",
"k  c #4A6757",
"l  c #516D5B",
"z  c #577653",
"x  c #4B7859",
"c  c #454966",
"v  c #495767",
"b  c #434574",
"n  c #4D4475",
"m  c #44447E",
"M  c #4C437D",
"N  c #464B79",
"B  c #524B7E",
"V  c #57487E",
"C  c #4B5573",
"Z  c #5A537F",
"A  c #4B6764",
"S  c #526467",
"D  c #5E7466",
"F  c #566976",
"G  c #637377",
"H  c #697774",
"J  c #398C10",
"K  c #3B8A26",
"L  c #418B10",
"P  c #44951B",
"I  c #479713",
"U  c #53881C",
"Y  c #55A81E",
"T  c #4CB012",
"R  c #448B2A",
"E  c #5D9D29",
"W  c #49843B",
"Q  c #548637",
"!  c #4B953C",
"~  c #5A9935",
"^  c #4B9127",
"/  c #67953D",
"(  c #729E3C",
")  c #58A728",
"_  c #58B52A",
"`  c #57A434",
"'  c #59B53A",
"]  c #4FAC28",
"[  c #63B527",
"{  c #68A838",
"}  c #63BD32",
"|  c #6AB838",
" . c #73B331",
".. c #58C222",
"X. c #68C72C",
"o. c #6AD82B",
"O. c #6CC539",
"+. c #73CB3C",
"@. c #77C936",
"#. c #6BD531",
"$. c #79D739",
"%. c #73CC2A",
"&. c #7CE139",
"*. c #4D8340",
"=. c #4A8544",
"-. c #528645",
";. c #5A8D53",
":. c #659946",
">. c #6A9358",
",. c #60854F",
"<. c #5BA944",
"1. c #7DAE46",
"2. c #79B64A",
"3. c #7AB956",
"4. c #66AD48",
"5. c #6C8E74",
"6. c #79A965",
"7. c #6AC846",
"8. c #75C84A",
"9. c #78D845",
"0. c #7DE64C",
"q. c #86D838",
"w. c #9AF93B",
"e. c #87D749",
"r. c #93D74A",
"t. c #9FCB50",
"y. c #88DB5A",
"u. c #8FD150",
"i. c #A3DB56",
"p. c #8BE549",
"a. c #96E34A",
"s. c #9BF349",
"d. c #98E956",
"f. c #9AF657",
"g. c #8CF052",
"h. c #A3E847",
"j. c #ADFB4B",
"k. c #B9F957",
"l. c #AFF355",
"z. c #87DD60",
"x. c #A3D670",
"c. c #A8EA67",
"v. c #B7EB66",
"b. c #B8F966",
"n. c #BBF374",
"m. c #C4F866",
"M. c #C0EE71",
"N. c #C8F877",
"B. c #D7FB7A",
"V. c #372B84",
"C. c #3D3282",
"Z. c #3E3A84",
"A. c #3C3A8B",
"S. c #443485",
"D. c #443C82",
"F. c #4C3D84",
"G. c #453388",
"H. c #4A368C",
"J. c #4C3C8C",
"K. c #463A8A",
"L. c #523D83",
"P. c #523E8D",
"I. c #4B3B96",
"U. c #523C93",
"Y. c #553997",
"T. c #462D88",
"R. c #394180",
"E. c #454384",
"W. c #4C4384",
"Q. c #4A4B83",
"!. c #4C438A",
"~. c #4B4A8A",
"^. c #464986",
"/. c #524684",
"(. c #524A82",
"). c #53448B",
"_. c #554B8C",
"`. c #5B4C8C",
"'. c #5B4987",
"]. c #4E5288",
"[. c #54538D",
"{. c #5B528D",
"}. c #5B5A8D",
"|. c #575186",
" X c #4B4393",
".X c #4D4B96",
"XX c #484894",
"oX c #544493",
"OX c #534C93",
"+X c #5A4D94",
"@X c #5B469A",
"#X c #5B4C9A",
"$X c #574798",
"%X c #555495",
"&X c #5C5393",
"*X c #5A5A91",
"=X c #51549A",
"-X c #5B529B",
";X c #5D5C9B",
":X c #535A95",
">X c #4E5196",
",X c #624B88",
"<X c #625A8D",
"1X c #66558D",
"2X c #624E96",
"3X c #624E9C",
"4X c #635395",
"5X c #635A94",
"6X c #63549A",
"7X c #69559B",
"8X c #635B9C",
"9X c #6B5A9B",
"0X c #6B5792",
"qX c #74559C",
"wX c #616489",
"eX c #6A6295",
"rX c #64619B",
"tX c #6A629C",
"yX c #6B6A96",
"uX c #727396",
"iX c #584BA1",
"pX c #5955A4",
"aX c #674BA5",
"sX c #6355A3",
"dX c #625BA4",
"fX c #6B5DA5",
"gX c #6C5DAA",
"hX c #6759A9",
"jX c #705DAF",
"kX c #6F57B5",
"lX c #6963AD",
"zX c #6C63A3",
"xX c #7369A5",
"cX c #7769B6",
"vX c #6B67B1",
"bX c #7C9191",
"nX c #798486",
"mX c #839A80",
"MX c #E8FB85",
/* pixels */
"H.a q q u <.a.B.n.d.9.8.| ` u 4 3 1 , C.A.x O.s.p.) A 8XeX8X4X{.",
"5X].~.G.D $.0.b.f.p.e.8.' `   y # $ !.!.n 7 k | X.R C 7X&X;X_.XX",
"zX{.b C.V.<.o.8.9.e.$.O.{ U W ' P O ).3X-X+XI.}.wX}.+X5X:X=X{.`.",
"sX`._.OX2X}.{ #.7.e.r.e.{ Q 3.p._ K X q /.6XsX8XqX4Xw 5 {._.M _.",
"C wX8X-XeX7X!.*.[ u.M.l.E 4.b.j.q.Y o &  X X&X[.OX> ^.=X).7 /._.",
">. .S |.m E.8 gXyX( h.t.D bXv.v.6.G ).8 Z.!.F.& > (.<XdX+X8 8XfX",
"x.b.1.E.W.2 &XgXaX>X,.D gXuXnXbXuXxX8X&X% 6 w Z.Q.@Xq 9 ; 7 ;X!.",
"i.m.r.l kX,XOXQ.m F.M 6X8XwX_.&X}.&XpX&Xq * ~.L.K.1 x j $ W.0 L.",
"| @. .A XX0 7 J.J.& M #XP.P.9 < d K.V n !.tXhXW.v 3.&._   C.9 Q.",
"F G v , C.D.7 2 ).D., 7 E.< m Z.1 J.7 C.D.+X~.5.p.d.c.@.I O : Z ",
"H.H.G.S._.zX`.!.q _.&XC.3 7 W.8X0X_..XXXW.; z d.b.N.s.q.' J c I.",
"M ).1 * & W.+X).W.8XsX<XB S.w U.).6XlX8X9XF.>.p.v.MXj.#.} P a ).",
"8X;X;XE.2 W.0 9 7 oX).#XD.y c 2 A.D.8 (.F.0 *X6.f.k.d.@.) W `.9X",
"#X&X_. X$X+X8X&X&X&X!.3 h ) ) P Q r = = = {.gXyX5.r.%.{ P p aX%X",
"`././.F.oX-X&X&X8XxX.Xj [ ' 4.| ) # ,./ k = % J.q S ) P o b '.^.",
"m D.1 F./._.+X8X6X-Xz [ X.$.e.r.] K  .k.{ a (.1 (.I.N p (.% E.J.",
"T.~.W.1 F.L.~.).Z V.j 8.y.N.v.9.) R   ~ A -XeXB tXiXF.aXxXb I.9 ",
"4.5.m : V.G.D.R.7 iXC [ p.N.l...Y R Q f D.U.H.I.oX.XM 7XtX;X- C ",
"l.h.>.D :.t C.0 OX7X-X;.7.e.+.' P 2.b.q.Q g oX< q 7 !.3XsXgXS u.",
"B.d.+.v.s.J r Y.&XsX8X].:.O.} L + i.b.p.-.d -X[.2X< 2 W.+X+X5.w.",
"m.p.X./ 2.K b K.#X8Xn S.N Q Q t R.:.1.H fXlX[.P.hX&X1 0 M K.5.g.",
"r.+.) O i i V.C.W._._.OX Xn 7 .X4X> XXkXqXtXdXe W.8XD.: 0 9 v 9.",
"X.) @ . ` / f 8 pX{.9X-X&X).).lX).F.m Q.B {.-Xw K.&X/.!.rX4XC [ ",
"! J o :.s.a.*.8X5X8X4X6X-XC.&X&X!.m D.L.L.W.< Z.E.0 '.cXvXjX*X~ ",
"  f N F d.%.k 6X&X[.%XOXE.1 OX(.E.F.oX& S.9 , M ].C.pXeXfX0X2X=.",
"v {.+X Xl # XX4X`.2X@XM (.+XW.&X_.8XcX_.y < K.!.(.8 -X6XsX-XoXa ",
"lXhX1X).#X-X$XW..XW.8 F.gX5X`.9 7X5XsXdX .{ f 7 K.e -X&X#X.XW.F.",
"5X{./.).zX<X!.D.M D.c _.cX&X-X0 !.`.(.=Xx.j.~ = > U.OXE.@XU.* _.",
"!.!.0 7 *Xm 1 9 6 oXoX).#XdX!.m !.{.N Q.mX3.! *.j D.oXQ.J.U.< m ",
"n J.; % D.!.9 ; s h u u y Z.q `.gX;XrX1XS E [ O._ s U.W.> ).&XE.",
"5 /.B 6XsXsX:Xj T T } +.{ y  X0X4X%X#X@Xv [ O.y.#.-.; 1 Q.|.OX6X",
"F.%XpX{.,XW.-.#.+.y.z.8. .-.A.W.q _.M H.N } &.n.d.Y * !.zX6XsX+X"
};
