/* XPM */
static char *ab49f43b02384c36af79c7719982670dTgKaZnC1617HW1BT[] = {
/* columns rows colors chars-per-pixel */
"64 64 18 1 ",
"  c black",
". c gray30",
"X c gray43",
"o c #AD7D30",
"O c #CDDC39",
"+ c #BD8F44",
"@ c #C99D57",
"# c #CFA35B",
"$ c #D4A257",
"% c #D9AC68",
"& c #D6B175",
"* c #EBC178",
"= c #F0C87F",
"- c gray62",
"; c #EF9A9A",
": c #F0C887",
"> c #F7CF8B",
", c #F7D18F",
/* pixels */
"%%%---------::::::::::::,,,,====**********XXXXX******++++XXXXX$$",
"%%%---------::::::::::::,,,,====**********XXXXX******++++XXXXX$$",
"%%%---------::::::::::::,,,,====**********XXXXX******++++XXXXX$$",
"%-----------::::::::::::,,,,====********XX;;XXX******++XX;;;XX$$",
"+-----------&&&&&&&&&&&&#############===XX;;XXX******%%XX;;;XX$$",
"+XXXX===####&&&&&&&&&&&&#############===XXXXXXXXXXXXXXXXXXXXXX$$",
"+XXXX===####&&&&&&&&&&&&#############===XXXXXXXXXXXXXXXXXXXXXX$$",
"+XXXX===####&&&&&&&&&&&&#############===XXXXXXXXXXXXXXXXXXXXXX$$",
"+XXXX===####&&&&&&&&&&&&#############=XXXXXXXXXXXXXXXXXXXXXXXXXX",
"*XXXX===========,,,,,,,,>>>>>>>>======XXXXXXXXXXXXXXXXXXXXXXXXXX",
"*XXXX===========,,,,,,,,>>>>>>>>======XXXXXXXXXXXXXXXXXXXXXXXXXX",
"*XXXX===========,,,,,,,,>>>>>>>>======XX--XXXXXXXXXXXXXXX-----XX",
"*XXXX===========,,,,,,,,>>>>>>>>======XX--XXXXXXXXXXXXXXX-----XX",
"+XXXX#######################&&&&######XXXX--OOO  ----OO  ---XXXX",
"+XXXX#######################&&&&######XXXX--OOO  ----OO  ---XXXX",
"+XXXX#######################&&&&######XXXX--OOO  ----OO  ---XXXX",
"+XXXX#######################&&&&######XX----OOO  ----OO  -----XX",
"+XXXX#######################&&&&######XX----OOO  ----OO  -----XX",
"%XXXX***####====::::========>>>>,,,,,=XX----OOO  ----OO  -----XX",
"%----***####====::::========>>>>,,,,,=XXXXXX-------  ----XXXXXXX",
"%----***####====::::========>>>>,,,,,=XXXXXX-------  ----XXXXXXX",
"%----XXX####====::::========>>>>,,,,,=XX---------  --  ---------",
"$----XXX************####====>>>>,,,,,,XX---------  --  ---------",
"$----XXX************####====>>>>,,,,,,XX---------  --  ---------",
"$$$XXXXXXX--..XXXXXXXXXXXXXXXXXXXXXXXX..----------------------oo",
"$$$XXXXXXX--..XXXXXXXXXXXXXXXXXXXXXXXX..----------------------oo",
"$$$XXXXXXX--..XXXXXXXXXXXXXXXXXXXXXXXX..----------------------oo",
"%%%%+XXXXX--..XXXX---XXXX----XXXXX------.........%%%%%%%%%%%%%%%",
"%%%%+XXXXX--..XXXX---XXXX----XXXXX------.........%%%%%%%%%%%%%%%",
"%%%%++++==....XXXX-----XXXX----XXXXX--------XXXXX%%%%%%%%%%%%%%%",
"%%%%++++==....XXXX-----XXXX----XXXXX--------XXXXX%%%%%%%%%%%%%%%",
"oooo++++##....XXXX-----XXXX----XXXXX--------XXXXX@@@@@@@@++++ooo",
"oooo++++....XX--XXXXX--------------------------XX@@@@@@@@++++ooo",
"oooo++++....XX--XXXXX--------------------------XX@@@@@@@@++++ooo",
"oooo++++....XX--XXXXX--------------------------XX@@@@@@@@++++ooo",
"$$$$$$$$XXXX-----------------------------------XX====@@@@%%%%%%%",
"$$$$$$$$XXXX-----------------------------------XX====@@@@%%%%%%%",
"$$$$$$$$XX-------------------------------------XX====@@@@%%%%%%%",
"$$$$$$$$XX-------------------------------------XX====@@@@%%%%%%%",
"$$$$$$$$XX-------------------------------------XX====@@@@%%%%%%%",
"$$$$$$$$XX-------------------------------------XX****%%%%++++%%%",
"$$$$$$$$XX-------------------------------------XX****%%%%++++%%%",
"$$$$$$$$XX-------------------------------------XX****%%%%++++%%%",
"$$$$$$$$------------------------------------XXXXX****%%%%++++%%%",
"$$$$%%%%------------------------------------XXXXX%%%%%%%%%%%%%%%",
"$$$$%%%%------------------------------------XXX**%%%%%%%%%%%%%%%",
"$$$$%%%%------------------------------------XXX**%%%%%%%%%%%%%%%",
"$$$$%%%%------------------------------------XXX**%%%%%%%%%%%%%%%",
"$$$$%%%%----------XXXXX=,,,,,,,XXXXXXX---------**%%%%%%%%%%%%%%%",
"oooo++++----------XXXXX:::::###XXXXXXX---------##@@@@++++++++ooo",
"oooo++++----------XXXXX:::::###XXXXXXX---------##@@@@++++++++ooo",
"oooo++++XXXXXXXX.......:::::###.......XXXXXXXXX##@@@@++++++++ooo",
"oooo++++XXXXXXXX.......:::::###.......XXXXXXXXX##@@@@++++++++ooo",
"$$$$%%%%XXXXXX.........:>>>>>.........XXXXXXXXX**%%%%%%%%%%%%%%%",
"$$$$%%%%XXXXXX.........:>>>>>.........XXXXXXXXX**%%%%%%%%%%%%%%%",
"$$$$%%%%XXXXXX.........:>>>>>.........XXXXXXXXX**%%%%%%%%%%%%%%%",
"$$$$%%%%----####==XXXXX:>>>>>XXXXX,,,,,,-------**%%%%%%%%%%%%%%%",
"$$$$%%%%----####==XXXXX:>>>>>XXXXX,,,,,,-------**%%%%%%%%%%%%%%%",
"$$$$++++----======XXXXX:####&XXXXX&&&###-------==@@@@****%%%%%%%",
"$$$$++++XXXXXX====.......###&.....&&&####=XXXXXXX@@@@****%%%%%%%",
"$$$$++++XXXXXX====.......###&.....&&&####=XXXXXXX@@@@****%%%%%%%",
"$$$$++++**------====:XXXXXX#&XXXXXXXXX###===-------@@****%%%%%%%",
"$$$$%%%%**------=====XXXXXX>>XXXXXXXXX,,,,,,-------======++++%%%",
"$$$$%%%%**------=====XXXXXX>>XXXXXXXXX,,,,,,-------======++++%%%"
};
